<svg id="Layer_1" data-name="Layer 1" xmlns="http://www.w3.org/2000/svg" viewBox="0 0 99 99.34"><defs><style>.cls-1{fill:#fff;}.cls-1,.cls-2{fill-rule:evenodd;}.cls-2{fill:#fff;}</style></defs><g id="Rounded_Rectangle_1" data-name="Rounded Rectangle 1"><path class="cls-1" d="M87,12.82A42.64,42.64,0,0,0,24.78,71.06l-.26.23L1.4,94.41a3.08,3.08,0,1,0,4.36,4.36L28.88,75.65a2.17,2.17,0,0,0,.24-.29A42.64,42.64,0,0,0,87,12.82ZM82.56,68.35a36.35,36.35,0,1,1,0-51.41A36.36,36.36,0,0,1,82.56,68.35Z" transform="translate(-0.5 -0.33)"/></g><g id="Rounded_Rectangle_1_copy_42" data-name="Rounded Rectangle 1 copy 42"><path class="cls-2" d="M76.29,27.57c.19.1-.14-.2,0,0Zm0,0A23.59,23.59,0,0,0,56.93,17.44a23.12,23.12,0,0,0-18.62,9.32,1.3,1.3,0,0,0-.39.31,3.41,3.41,0,0,0,0,4.36,3.14,3.14,0,0,0,4.86-.51,17.38,17.38,0,0,1,14.15-7.33,16.86,16.86,0,0,1,14.45,8.07h0a2.93,2.93,0,0,0,.7,1.11,3,3,0,0,0,4.19.16C77.87,31.63,77.88,29.92,76.29,27.57Z" transform="translate(-0.5 -0.33)"/></g></svg>