<svg id="Layer_1" data-name="Layer 1" xmlns="http://www.w3.org/2000/svg" viewBox="0 0 94 57.65"><defs><style>.cls-1{fill:#c7d4ce;fill-rule:evenodd;}.cls-2{fill:#c7d4ce;}</style></defs><g id="Rounded_Rectangle_1_copy_22" data-name="Rounded Rectangle 1 copy 22"><path class="cls-1" d="M94.2,59.25H82.29V47.34a2.72,2.72,0,0,0-5.43,0V59.25H65.37a2.72,2.72,0,0,0,0,5.43H76.86V76.17a2.72,2.72,0,0,0,5.43,0V64.68H94.2a2.72,2.72,0,0,0,0-5.43Z" transform="translate(-2.92 -21.23)"/></g><g id="Rounded_Rectangle_1_copy_19" data-name="Rounded Rectangle 1 copy 19"><path class="cls-2" d="M70,40H5.63a2.72,2.72,0,0,0,0,5.43H70A2.72,2.72,0,0,0,70,40ZM54.51,58.83H5.63a2.72,2.72,0,0,0,0,5.43H54.51a2.72,2.72,0,1,0,0-5.43ZM5.63,26.66H70a2.72,2.72,0,0,0,0-5.43H5.63a2.72,2.72,0,0,0,0,5.43Z" transform="translate(-2.92 -21.23)"/></g></svg>