<svg id="Layer_1" data-name="Layer 1" xmlns="http://www.w3.org/2000/svg" viewBox="0 0 99.13 99.13"><defs><style>.cls-1{fill:#fff;}.cls-2{fill:#40ba8e;fill-rule:evenodd;}</style></defs><g id="Rounded_Rectangle_3_copy" data-name="Rounded Rectangle 3 copy"><path class="cls-1" d="M20,26.54H55.75a2.53,2.53,0,0,0,0-5.06H20a2.53,2.53,0,0,0,0,5.06ZM80.24,74H20A2.53,2.53,0,0,0,20,79H80.24a2.53,2.53,0,0,0,0-5.06ZM20,44H42.14a2.53,2.53,0,1,0,0-5.05H20A2.53,2.53,0,0,0,20,44ZM80.24,56.47H20a2.53,2.53,0,0,0,0,5.05H80.24a2.53,2.53,0,0,0,0-5.05ZM80,.49H19.79A19.44,19.44,0,0,0,.35,19.93V80.18A19.44,19.44,0,0,0,19.79,99.62H80A19.44,19.44,0,0,0,99.48,80.18V19.93A19.44,19.44,0,0,0,80,.49ZM94.42,79A15.55,15.55,0,0,1,78.88,94.57H21A15.55,15.55,0,0,1,5.41,79V21.1A15.55,15.55,0,0,1,21,5.55H78.88A15.55,15.55,0,0,1,94.42,21.1Z" transform="translate(-0.35 -0.49)"/></g><g id="Rounded_Rectangle_1_copy_40" data-name="Rounded Rectangle 1 copy 40"><path class="cls-2" d="M79.24,17.18l0,.05C74.58,14.75,68.68,15,68.68,15a9.64,9.64,0,0,0-1,10L64,32s-9.11.43-11.71,8.29L60.47,45,55.23,54a4.84,4.84,0,1,0,5,4.84,4.79,4.79,0,0,0-.59-2.32l5.26-9.1,8.24,4.81C78.63,46.09,74.43,38,74.43,38l4.14-6.73a9.65,9.65,0,0,0,8.2-5.84S83.9,19.91,79.24,17.18Z" transform="translate(-0.35 -0.49)"/></g></svg>