<?xml version="1.0" encoding="utf-8"?>
<!-- Generator: Adobe Illustrator 28.3.0, SVG Export Plug-In . SVG Version: 6.00 Build 0)  -->
<svg version="1.1" id="Layer_1" xmlns="http://www.w3.org/2000/svg" xmlns:xlink="http://www.w3.org/1999/xlink" x="0px" y="0px"
	 viewBox="0 0 100 100" style="enable-background:new 0 0 100 100;" xml:space="preserve">
<g id="Rounded_Rectangle_1_copy_72">
	<g>
		<path d="M60.1,61.1h20.2c1,0,1.7-0.8,1.7-1.7c0-1-0.8-1.7-1.7-1.7H60.1c-1,0-1.7,0.8-1.7,1.7C58.4,60.3,59.2,61.1,60.1,61.1z
			 M18.8,37.6h20.2c1,0,1.7-0.8,1.7-1.7c0-1-0.8-1.7-1.7-1.7H18.8c-1,0-1.7,0.8-1.7,1.7C17.1,36.8,17.9,37.6,18.8,37.6z M60.1,49.3
			h20.2c1,0,1.7-0.8,1.7-1.7s-0.8-1.7-1.7-1.7H60.1c-1,0-1.7,0.8-1.7,1.7S59.2,49.3,60.1,49.3z M60.1,37.6h20.2c1,0,1.7-0.8,1.7-1.7
			c0-1-0.8-1.7-1.7-1.7H60.1c-1,0-1.7,0.8-1.7,1.7C58.4,36.8,59.2,37.6,60.1,37.6z M97.1,25.1h-5.3c-1,0-1.7,0.8-1.7,1.7
			c0,1,0.8,1.7,1.7,1.7h3.6v51.9H4.6V28.6h3.6c1,0,1.7-0.8,1.7-1.7c0-1-0.8-1.7-1.7-1.7H2.9c-1,0-1.7,0.8-1.7,1.7v55.4
			c0,1,0.8,1.7,1.7,1.7h93.8c0.1,0,0.2,0,0.3,0c0.1,0,0.2,0,0.3,0c1,0,1.7-0.8,1.7-1.7V26.8C98.9,25.9,98.1,25.1,97.1,25.1z
			 M18.8,49.3h20.2c1,0,1.7-0.8,1.7-1.7s-0.8-1.7-1.7-1.7H18.8c-1,0-1.7,0.8-1.7,1.7S17.9,49.3,18.8,49.3z M18.8,61.1h20.2
			c1,0,1.7-0.8,1.7-1.7c0-1-0.8-1.7-1.7-1.7H18.8c-1,0-1.7,0.8-1.7,1.7C17.1,60.3,17.9,61.1,18.8,61.1z"/>
	</g>
</g>
<g id="Rounded_Rectangle_1_copy_79">
	<g>
		<path d="M92.5,17.6C92.5,17.6,92.5,17.6,92.5,17.6L92.5,17.6c0-0.1,0-0.2,0-0.3c-0.2-0.7-0.8-1.2-1.5-1.3c0,0,0,0,0,0H61.1
			c-4.9,0-9.1,2.6-11.5,6.5C47.3,18.7,43,16,38.1,16L8.6,16c0,0,0,0,0,0c0,0-0.1,0-0.1,0c-0.7,0-1.4,0.5-1.6,1.1
			c-0.1,0.1-0.1,0.3-0.1,0.4c0,9.3,0,58.2,0,58.2h0c0.1,0.9,0.8,1.6,1.7,1.6h29c0,0,7.3-0.3,8.7,3.2h6.9c1.3-3.5,8.7-3.2,8.7-3.2h29
			c0.9,0,1.7-0.7,1.7-1.6h0C92.5,75.7,92.5,27.3,92.5,17.6C92.5,17.7,92.5,17.6,92.5,17.6z M47.7,29.4v47.3
			c-3.3-3-10.3-2.8-10.3-2.8h-27V19.5h26.9c5.2,0,9.5,3.7,10.4,8.6C47.8,28.5,47.7,28.9,47.7,29.4z M88.8,73.8h-27
			c0,0-7-0.1-10.3,2.8V29.4c0-0.4,0-0.9-0.1-1.3c1-4.9,5.3-8.6,10.4-8.6h26.9V73.8z"/>
	</g>
</g>
</svg>
