<svg id="Layer_1" data-name="Layer 1" xmlns="http://www.w3.org/2000/svg" viewBox="0 0 100 100"><defs><style>.cls-1{fill:#000;fill-rule:evenodd;}</style></defs><g id="Instagram"><path class="cls-1" d="M69.38,2.62H30.62A30.15,30.15,0,0,0,.48,32.77V67.23A30.15,30.15,0,0,0,30.62,97.38H69.38A30.15,30.15,0,0,0,99.52,67.23V32.77A30.15,30.15,0,0,0,69.38,2.62ZM88.75,67.23A21.54,21.54,0,0,1,67.22,88.77H32.78A21.54,21.54,0,0,1,11.25,67.23V32.77A21.54,21.54,0,0,1,32.78,11.23H67.22A21.54,21.54,0,0,1,88.75,32.77Zm-14-47.38a5.39,5.39,0,1,0,5.38,5.38A5.38,5.38,0,0,0,74.76,19.85ZM50,25.45A24.55,24.55,0,1,0,74.54,50,24.55,24.55,0,0,0,50,25.45Zm0,40.27A15.72,15.72,0,1,1,65.72,50,15.72,15.72,0,0,1,50,65.72Z"/></g></svg>