<?xml version="1.0" encoding="utf-8"?>
<!-- Generator: Adobe Illustrator 28.3.0, SVG Export Plug-In . SVG Version: 6.00 Build 0)  -->
<svg version="1.1" id="Layer_1" xmlns="http://www.w3.org/2000/svg" xmlns:xlink="http://www.w3.org/1999/xlink" x="0px" y="0px"
	 viewBox="0 0 100 100" style="enable-background:new 0 0 100 100;" xml:space="preserve">
<style type="text/css">
	.st0{fill:#000;}
	.st1{fill:#000;}
</style>
<g>
	<g id="Rounded_Rectangle_1_copy_12">
		<g>
			<path class="st0" d="M95.6,84.1c0-4.5-2.2-8.5-5.6-11.1l0.1-0.1L63.6,56.9c9.3-4.9,15.6-14.6,15.6-25.7c0-16-13-29-29-29
				c-16,0-29,13-29,29c0,11.4,6.5,21.2,16,26L10.9,72.9L11,73c-3.4,2.5-5.7,6.6-5.7,11.1c0,7.3,5.7,13.3,12.9,13.8l0,0H82l0,0
				C89.6,97.8,95.6,91.7,95.6,84.1z M25.9,31.1c0-13.4,10.9-24.3,24.3-24.3s24.3,10.9,24.3,24.3c0,13.4-10.9,24.3-24.3,24.3
				S25.9,44.5,25.9,31.1z M81.8,93.2L81.8,93.2l-63.2,0c-4.3-0.5-8-4.5-8-8.8c0-3.2,2.2-6.2,4.9-7.7l-0.1-0.1l28.4-17.1
				c2.1,0.5,4.2,0.7,6.4,0.7c2.4,0,4.7-0.3,6.9-0.8l28.5,17.2l0,0.1c2.7,1.4,4.9,4.4,4.9,7.7C90.4,88.9,86.4,93,81.8,93.2z"/>
		</g>
	</g>
	<g id="Rounded_Rectangle_1_copy_74">
		<g>
			<path class="st1" d="M34.2,43C34,42.9,34.3,43.2,34.2,43L34.2,43z M64.5,40c-1.1-1.1-3-0.9-3.8,0.4c-2.4,3.5-6.6,5.8-11.2,5.8
				c-4.9,0-9.1-2.6-11.4-6.4l0,0c-0.1-0.3-0.3-0.6-0.6-0.9c-1-1-2.3-1-3.3-0.1c-1.3,1-1.3,2.4,0,4.2c3.3,4.8,9,8,15.3,8
				c6.1,0,11.4-2.9,14.7-7.4c0.1-0.1,0.2-0.1,0.3-0.2C65.5,42,65.2,40.7,64.5,40z"/>
		</g>
	</g>
</g>
</svg>
