<?xml version="1.0" encoding="utf-8"?>
<!-- Generator: Adobe Illustrator 28.3.0, SVG Export Plug-In . SVG Version: 6.00 Build 0)  -->
<svg version="1.1" id="Layer_1" xmlns="http://www.w3.org/2000/svg" xmlns:xlink="http://www.w3.org/1999/xlink" x="0px" y="0px"
	 viewBox="0 0 100 100" style="enable-background:new 0 0 100 100;" xml:space="preserve">
<style type="text/css">
	.st0{fill:#000;}
	.st1{fill:#000;}
</style>
<g id="Shape_20">
	<g>
		<path class="st0" d="M99.7,49.4c-0.6-8.3-4.7-8.1-4.7-8.1l-12.8-3.4c-0.3-0.9-0.9-2.1-0.9-2.1l7.2-11.9c1.7-3.4-3.4-8.9-3.4-8.9
			c-5.2-4.4-8.5-3-8.5-3l-11.9,7.2c-0.4-0.5-2.1-1.3-2.1-1.3L59.2,5.1c-0.7-3.8-8.5-4.3-8.5-4.3c-8.2,0.8-8.1,3.8-8.1,3.8l-3.4,13.2
			c-1.4,0.3-2.6,0.9-2.6,0.9l-11.5-6.8c-0.9-0.6-2.1-0.4-2.1-0.4c-9.7,2.8-10.2,11.9-10.2,11.9L20,34.9l-1.3,3L6.8,41.3
			c-5.9,1.8-5.1,8.9-5.1,8.9c0.7,8.2,6,8.1,6,8.1l11.1,3l1.3,2.6L13.6,75c-2,4.7,1.7,8.9,1.7,8.9c5.2,5.7,10.7,3,10.7,3L37,80.5
			l2.1,0.9l3,11.9c0.4,5.5,8.5,6,8.5,6c9-1,8.9-6,8.9-6l3-11.9l2.6-0.9l11.1,6.4c3.8,2.3,8.9-2.1,8.9-2.1c6-5.9,3-10.2,3-10.2
			l-6.4-10.7l0.9-2.6l12.8-3.4C99.8,56.7,99.7,49.4,99.7,49.4z M93.3,52l-13.2,3.8c0,0-2.2-0.1-3,2.1l-1.7,3.8c0,0-0.7,2,0.4,4.3
			l6.8,11.5c0,0-0.5,3.1-3.4,3.8l-12.4-7.2c0,0-1.3-0.8-3,0l-4.7,2.1c0,0-1.8,0.7-2.1,3L53.7,92c0,0-2.4,1.1-4.7,0.4l-4.3-13.6
			c0,0,0-2.5-2.1-3l-4.3-1.7c0,0-1.5-0.9-3.8,0.4l-11.9,6.8c0,0-2.6-0.5-3.4-3.4L26,66.4c0,0,1-2,0-4.3l-2.1-4.7c0,0-0.8-2-3.4-2.1
			l-11.9-3c0,0-1.5-2.5,0-5.1l12.8-3.4c0,0,2.5-0.6,3-3l1.7-4.7c0,0,1.2-1.8-0.4-3.8l-6-10.2c0,0,0.6-3.2,3.8-3.8l10.7,6.4
			c0,0,1.5,0.6,3.8,0L43,23c0,0,2-0.7,2.1-3l3.4-12.4c0,0,2.2-0.7,5.1,0l3,11.5c0,0-0.1,2.1,2.1,3.4c0.8,0.5,3.3,2,4.7,2.6
			c2.3,0.8,3.8-0.4,3.8-0.4l11.5-6.8c0,0,2.6,1.4,3.8,3.8l-7.2,11.9c0,0-0.5,1.1,0,3.4l1.3,4.3c0,0,0.9,1.9,2.6,2.1l13.6,3.4
			C92.9,46.8,93.7,49.3,93.3,52z"/>
	</g>
</g>
<g id="Rounded_Rectangle_1_copy_50">
	<g>
		<path class="st1" d="M57.1,34.6c-8.3-3.4-17.9,0.5-21.3,8.8c-3.5,8.3,0.5,17.9,8.8,21.3c8.3,3.4,17.9-0.5,21.3-8.8
			C69.4,47.6,65.5,38,57.1,34.6z M60.6,53.7c-2.2,5.4-8.4,7.9-13.8,5.7c-5.4-2.2-7.9-8.4-5.7-13.8c2.2-5.4,8.4-7.9,13.8-5.7
			C60.3,42.1,62.8,48.3,60.6,53.7z"/>
	</g>
</g>
</svg>
