<?xml version="1.0" encoding="utf-8"?>
<!-- Generator: Adobe Illustrator 28.3.0, SVG Export Plug-In . SVG Version: 6.00 Build 0)  -->
<svg version="1.1" id="Layer_1" xmlns="http://www.w3.org/2000/svg" xmlns:xlink="http://www.w3.org/1999/xlink" x="0px" y="0px"
	 viewBox="0 0 100 100" style="enable-background:new 0 0 100 100;" xml:space="preserve">
<style type="text/css">
	.st0{enable-background:new    ;}
	.st1{fill:#2E3E36;}
	.st2{fill:#719485;}
</style>
<g id="Rounded_Rectangle_1_copy_85" class="st0">
	<g id="Rounded_Rectangle_1_copy_85-2">
		<path class="st1" d="M91.5,50.5v42.8H66.8V55.2c0-1.6-1.2-2.9-2.9-2.9H36.1c-1.6,0-2.9,1.2-2.9,2.9v38.2H8.5V50.5H2.9V96
			c0,1.1,0.5,2,1.4,2.5C4.9,98.9,5.4,99,6,99h69.7H94c0.5,0,1.1-0.2,1.6-0.5c0.9-0.5,1.4-1.4,1.4-2.5V50.5H91.5L91.5,50.5z
			 M61.2,93.3H38.9V57.8h22.3V93.3z"/>
	</g>
</g>
<g id="Rounded_Rectangle_1_copy_80" class="st0">
	<g id="Rounded_Rectangle_1_copy_80-2">
		<path class="st2" d="M96.4,46.1L52.1,1.7C51.6,1.1,50.9,1,50,1c-0.7,0-1.6,0.2-2.1,0.7l0,0l0,0l0,0l-44,44.2
			c-1.1,1.1-0.9,3.4,0,4.5c1.1,1.1,2.9,1.1,3.9,0L50,7.9l42.3,42.4c1.1,1.1,2.9,1.1,3.9,0c1.1-1.1,1.2-3.4,0-4.5L96.4,46.1z"/>
	</g>
</g>
</svg>
