<?xml version="1.0" encoding="utf-8"?>
<!-- Generator: Adobe Illustrator 28.3.0, SVG Export Plug-In . SVG Version: 6.00 Build 0)  -->
<svg version="1.1" id="Layer_1" xmlns="http://www.w3.org/2000/svg" xmlns:xlink="http://www.w3.org/1999/xlink" x="0px" y="0px"
	 viewBox="0 0 100 100" style="enable-background:new 0 0 100 100;" xml:space="preserve">
<style type="text/css">
	.st0{fill:#ffffff;}
	.st1{fill:#40BA8E;}
</style>
<g id="Rounded_Rectangle_1_copy_4">
	<g>
		<path class="st0" d="M33.2,20.3c0-1.4-1.1-2.5-2.4-2.5c-0.8,0-1.6,0.4-2,1.1l-0.1-0.1c-5.9,5.7-9.6,13.7-9.6,22.6
			c0,8.9,3.7,16.9,9.6,22.6l0.2-0.1c0.4,0.7,1.2,1.1,2.1,1.1c1.4,0,2.4-1.1,2.4-2.5c0-0.9-0.5-1.7-1.2-2.1c-5-4.8-8.1-11.5-8.1-19
			c0-7.5,3.1-14.2,8-19C32.7,22,33.2,21.2,33.2,20.3z M20.1,72.8C12,64.9,6.9,53.8,6.9,41.6c0-12.3,5.1-23.4,13.2-31.3l0,0
			c0.7-1,0.6-2.4-0.3-3.2c-0.9-0.9-2.4-1-3.4-0.1l0,0c0,0-0.1,0.1-0.1,0.1c0,0,0,0-0.1,0l0,0C7.4,15.8,1.8,28.1,1.8,41.6
			c0,13.6,5.6,25.9,14.5,34.7l0,0c1,0.9,2.6,1.1,3.4,0.1C21,75.1,20.8,73.8,20.1,72.8L20.1,72.8z M84.3,6.6L84.3,6.6
			C84.3,6.6,84.3,6.6,84.3,6.6c-0.1-0.1-0.1-0.1-0.2-0.2l0,0c-1-0.8-2.4-0.6-3.3,0.2C79.9,7.6,79.8,9,80.6,10l-0.1,0.1
			c8.3,7.9,13.5,19.2,13.5,31.6c0,12.1-5,23.1-12.9,31c-0.7,0.4-1.2,1.2-1.2,2.1c0,1.4,1.1,2.5,2.4,2.5c1.3,0,2-0.3,2.4-1.1
			c8.8-8.8,14.3-21,14.3-34.5C99.1,27.9,93.4,15.5,84.3,6.6z M71.9,18.7l-0.1,0.1c-0.4-0.6-1.1-1-1.9-1c-1.4,0-2.4,1.1-2.4,2.5
			c0,0.9,0.5,1.7,1.2,2.1c5,4.8,8.1,11.5,8.1,19c0,7.5-3.1,14.2-8.1,19c-0.7,0.4-1.2,1.2-1.2,2.1c0,1.4,1.1,2.5,2.4,2.5
			c0.7,0,1.4-0.3,1.9-0.9l0.1,0.1c6-5.7,9.8-13.8,9.8-22.8C81.6,32.5,77.9,24.4,71.9,18.7z"/>
	</g>
</g>
<g id="Rounded_Rectangle_1_copy_6">
	<g>
		<path class="st1" d="M50.3,27.2c-7.9,0-14.3,6.4-14.3,14.3c0,7,5.1,12.9,11.8,14.1v36.3c0,1.4,1.1,2.5,2.5,2.5
			c1.4,0,2.5-1.1,2.5-2.5V55.5c6.7-1.2,11.8-7,11.8-14.1C64.5,33.6,58.2,27.2,50.3,27.2z M50.3,50.6c-5.1,0-9.2-4.1-9.2-9.2
			s4.1-9.2,9.2-9.2c5.1,0,9.2,4.1,9.2,9.2S55.4,50.6,50.3,50.6z"/>
	</g>
</g>
</svg>
