<?xml version="1.0" encoding="utf-8"?>
<!-- Generator: Adobe Illustrator 28.3.0, SVG Export Plug-In . SVG Version: 6.00 Build 0)  -->
<svg version="1.1" xmlns="http://www.w3.org/2000/svg" xmlns:xlink="http://www.w3.org/1999/xlink" x="0px" y="0px"
	 viewBox="0 0 591.3 259.5" style="enable-background:new 0 0 591.3 259.5;" xml:space="preserve">
<style type="text/css">
	.st0{filter:url(#Adobe_OpacityMaskFilter);}
	.st1{mask:url(#SVGID_1_);fill-rule:evenodd;clip-rule:evenodd;fill:#082036;}
	.st2{fill:#FEFEFE;}
	.st3{fill:#F8F8F8;}
</style>
<g id="Background_xA0_Image_00000078729444673061972230000013741657377890241965_">
</g>
<g id="Layer_3_xA0_Image_00000029761598716635743210000017611987171698197421_">
	<defs>
		<filter id="Adobe_OpacityMaskFilter" filterUnits="userSpaceOnUse" x="1.8" y="2.1" width="587.7" height="255.3">
			
				<feColorMatrix  type="matrix" values="-1 0 0 0 1  0 -1 0 0 1  0 0 -1 0 1  0 0 0 1 0" color-interpolation-filters="sRGB" result="source"/>
			<feFlood  style="flood-color:white;flood-opacity:1" result="back"/>
			<feBlend  in="source" in2="back" mode="normal"/>
		</filter>
	</defs>
	<mask maskUnits="userSpaceOnUse" x="1.8" y="2.1" width="587.7" height="255.3" id="SVGID_1_">
		<g class="st0">
			
				<image style="overflow:visible;opacity:0.5;" width="3949" height="1406" id="Layer_3_xA0_Image" xlink:href="50DC90FD.png"  transform="matrix(0.24 0 0 0.24 -178.2577 -39.0757)">
			</image>
		</g>
	</mask>
	<path class="st1" d="M529.2,257.4H62.1c-33.3,0-60.3-27-60.3-60.3V62.3c0-33.3,27-60.3,60.3-60.3h467.1c33.3,0,60.3,27,60.3,60.3
		v134.8C589.5,230.4,562.5,257.4,529.2,257.4z"/>
	<g>
		<rect x="422.7" y="124.5" transform="matrix(0.7071 -0.7071 0.7071 0.7071 33.8977 339.8204)" class="st2" width="9" height="9"/>
		<polygon class="st2" points="466.9,116 472.3,121.4 477.8,115.9 472.3,110.4 466.9,115.7 461.5,110.3 456,115.8 461.5,121.4 		"/>
		<path class="st2" d="M510.2,133c-0.4-1.9-1.1-3.6-2.1-5.1c-0.9-1.5-2.1-2.7-3.6-3.6c-1.4-0.9-3.2-1.4-5.2-1.4
			c-1.5,0-2.8,0.3-4,0.9c-1.2,0.6-2.2,1.3-3.2,2.3c-0.9,0.9-1.8,2-2.5,3.1c-0.7,1.2-1.4,2.3-1.9,3.5c-0.5,0.9-1,1.9-1.4,2.9
			c-0.5,1-1,1.9-1.6,2.7c-0.6,0.8-1.3,1.5-2.2,2c-0.9,0.5-1.9,0.8-3.2,0.8h-0.3h-0.7c-0.8,0-1.5-0.2-2-0.5c-0.5-0.3-0.9-0.8-1.2-1.3
			s-0.5-1.1-0.6-1.7c-0.1-0.6-0.2-1.2-0.3-1.7c-0.1-0.8-0.2-1.5-0.3-2.2c-0.1-0.7-0.2-1.4-0.3-2s-0.3-1.4-0.4-2.1s-0.4-1.5-0.6-2.3
			l-8.3,2.4c0.2,0.7,0.4,1.5,0.6,2.3c0.2,0.8,0.4,1.6,0.4,2.4c0.1,0.8,0.1,1.6,0,2.3s-0.4,1.4-0.8,2c-0.3,0.5-0.8,0.9-1.3,1.2
			c-0.6,0.3-1.2,0.6-2,0.8c-0.8,0.2-1.8,0.3-2.8,0.4c-1.1,0.1-2.3,0.1-3.7,0.1h-0.9c-0.5,0-1.1,0-1.6-0.1c-0.5-0.1-1.1-0.3-1.7-0.7
			c-0.6-0.4-1.2-1-1.9-1.9c-0.7-0.8-1.4-2.1-2.2-3.6l-2.9-5.6l-7.8,5c0.7,1.5,1.5,2.9,2.2,4.4c0.7,1.4,1.3,2.8,1.8,4.1
			c0.5,1.3,0.9,2.6,1.3,3.9c0.3,1.2,0.5,2.4,0.5,3.5c0,1.9-0.4,3.5-1.1,4.9s-1.8,2.5-3.1,3.3s-2.9,1.5-4.8,1.9
			c-1.8,0.4-3.9,0.6-6.1,0.5c-1.6,0-3.2-0.3-4.7-0.8c-1.5-0.5-2.9-1.2-4.1-2.1c-1.2-0.9-2.2-2-2.9-3.2c-0.7-1.2-1.1-2.6-1.1-4.1
			c0-1.1,0.1-2.3,0.4-3.6c0.2-1.3,0.6-2.6,0.9-3.9s0.8-2.6,1.4-3.8c0.5-1.2,1-2.3,1.6-3.3l-6.4-4.6c-1,1.8-1.8,3.5-2.5,5.1
			s-1.3,3.1-1.8,4.6s-0.8,3-1.1,4.4c-0.2,1.5-0.3,3-0.3,4.7c0,3.1,0.5,5.9,1.5,8.3c1,2.5,2.4,4.5,4.2,6.2c1.8,1.7,4,3,6.6,3.9
			c2.6,0.9,5.5,1.3,8.7,1.3c3.2,0,6.1-0.5,8.9-1.4c2.7-0.9,5.1-2.2,7.2-4c2-1.7,3.7-3.9,4.8-6.4s1.8-5.4,1.8-8.7
			c0.4,0.1,0.8,0.3,1.2,0.4c0.4,0.1,0.7,0.2,1,0.3c0.3,0.1,0.7,0.1,1,0.2c0.3,0,0.6,0,1,0.1v0h0.2h0.9h0v0c1.3,0,2.6,0,4-0.1
			c1.4-0.1,2.7-0.2,4-0.4c1.3-0.2,2.5-0.5,3.7-0.9c1.2-0.4,2.2-0.9,3.1-1.6c0.5,0.4,1,0.8,1.7,1.2c0.7,0.4,1.4,0.7,2.2,1
			s1.6,0.5,2.5,0.6c0.7,0.1,1.5,0.2,2.2,0.2v0h0.5h0.7h0.3c1.1,0,2.1-0.1,3-0.2c0.9-0.1,1.8-0.4,2.6-0.7c0.8-0.3,1.6-0.8,2.3-1.4
			c0.7-0.6,1.4-1.3,2-2.1c0.8,0.6,1.8,1.1,2.9,1.6c1.1,0.5,2.2,1,3.4,1.4c1.2,0.4,2.4,0.7,3.6,1c1.2,0.2,2.4,0.4,3.5,0.4
			c1,0,1.9-0.3,2.9-0.8c1-0.6,1.8-1.3,2.6-2.3s1.4-2.2,1.9-3.5c0.5-1.4,0.7-2.9,0.7-4.5C510.8,136.8,510.6,134.9,510.2,133z
			 M503.9,141c-0.8-0.1-1.6-0.2-2.5-0.4c-0.9-0.2-1.7-0.4-2.6-0.6s-1.7-0.6-2.5-0.9c-0.8-0.3-1.5-0.7-2.1-1.1
			c0.3-0.6,0.6-1.3,0.9-2.1c0.3-0.7,0.7-1.4,1.1-2.1c0.4-0.6,0.9-1.2,1.3-1.6c0.5-0.4,1-0.6,1.5-0.6c0.7,0,1.4,0.3,2.1,0.8
			c0.6,0.5,1.2,1.3,1.6,2.1c0.4,0.9,0.8,1.9,1,3C504,138.7,504,139.8,503.9,141z"/>
	</g>
	<g id="Shape_1_00000162336154403660928500000004017875205374240168_">
		<g>
			<path class="st3" d="M239.4,114.4c2.5,1.9,4.5,3.3,5.8,4.4c1.8,0,3.9-2.1,6.2-6.2c0.7-1.6,1.2-3,1.6-4.3c0.5,0.7,1.7,1.7,3.5,3.1
				c2.5,1.9,4.4,3.3,5.6,4.4c1.8,0,3.9-2.1,6.2-6.2c1.7-3.5,2.4-6.2,2.1-8.1c-0.3-1.6-1.1-3.1-2.4-4.5c-1.3-1.4-3.5-3.3-6.7-5.5
				c-1.5,2-3.3,5.1-5.4,9.2c-1.2,2.3-2,4.1-2.5,5.3c0-0.6,0-1.1-0.1-1.6c-0.3-1.5-1.1-3-2.4-4.5c-1.2-1.5-3.4-3.4-6.6-5.6
				c-1.5,2.1-3.3,5.2-5.4,9.3c-2.1,4.1-3.2,6.4-3.3,6.9C235.6,111.2,236.9,112.5,239.4,114.4z M247,94.8c2.5,1.9,4.4,3.3,5.7,4.4
				c1.8,0,3.8-2.1,6-6.2c1.7-3.5,2.4-6.3,2.1-8.3c-0.3-1.5-1.1-2.9-2.4-4.4c-1.2-1.4-3.4-3.3-6.6-5.7c-1.5,2.1-3.3,5.2-5.4,9.3
				c-2.1,4.1-3.2,6.4-3.2,6.9C243.3,91.6,244.5,92.9,247,94.8z M387.4,97c-2.4-4.2-4.1-6.2-5-6c-0.8,0-2,1.4-3.6,4.2
				c-1.6,2.8-2.8,5-3.4,6.5c-2.7,0.4-8.6,4-17.6,10.7c-9,6.7-19.3,13.4-30.8,20c-11.5,6.6-27,12.8-46.5,18.5
				c-19.5,5.7-37.1,8.5-52.9,8.5c-12.7,0-23.4-0.1-33.1-1.1c-8.4-1-18.1-2.7-28.9-4.8c-12.1-3.1-21.9-4.5-29.4-4.3l21.6-21.1
				c4.9-4.6,16.3-16.3,34.3-35.3c14.6-15.1,25.2-28.2,31.8-39.2c1.7-3.1,3.6-6.9,5.5-11.3c2-4.5,3-7.4,3.1-8.9
				c0.1-1.4,0-2.2-0.3-2.4c-0.3-0.2-0.9,0.1-1.6,0.9c-5.3,12.1-21.6,32-49,59.7l-8.3,8.3c-30.3,30.6-47.5,47-51.6,49.1l9.4-54.5
				c0.8-3.7,0.6-5.5-0.5-5.3c-6.5,8.2-10.9,18.9-13.3,32.1c-2.4,13.2-4.6,25.1-6.5,35.5c-1.9,10.4-2.9,18.9-2.9,25.3
				c0,6.4,1.2,12.3,3.7,17.5c2.4,5.2,6.8,7.8,13.1,7.8c6.3,0,12.3-4,18-12.1c4-5.8,7.1-12.2,9.2-19c2.1-6.8,3.5-10.2,4.3-10.2
				c7.4,6.9,15,11.4,23,13.5c6,1.6,13.5,2.5,22.4,2.8c5,0.4,10.4,0.5,16.4,0.5c28.5,0,57.9-7.6,88.2-23c9.2-4.7,18.3-10.3,27.4-16.9
				c9-6.6,16.7-12.3,23.1-17.1c6.4-4.8,9.8-7.2,10.4-7.2c0.7,0,2.5,0.5,5.6,1.4c3.1,1,5.2,1.4,6.4,1.4c3.4,0,6.2-1.6,8.6-4.8
				c2.4-3.2,3.5-6.3,3.5-9.2C391.1,104.8,389.8,101.2,387.4,97z M141.9,178.4c-3,2.3-6.5,3.4-10.6,3.4c-7.7,0-11.5-4.2-11.5-12.6
				c0.2-5.3,2.6-8.1,7.2-8.4c4.6-0.3,9,0.4,13.1,2c4.2,1.6,6.3,3.7,6.3,6.4C146.3,173,144.9,176.1,141.9,178.4z M79,113.1
				c2.5,1.9,4.5,3.3,5.8,4.4c1.8,0,3.9-2.1,6.2-6.2c0.8-1.5,1.3-2.9,1.7-4.2c0.5,0.7,1.7,1.7,3.5,3c2.5,1.9,4.4,3.3,5.6,4.4
				c1.8,0,3.9-2.1,6.2-6.2c1.7-3.5,2.4-6.2,2.1-8.1c-0.3-1.6-1.1-3.1-2.4-4.5c-1.3-1.4-3.5-3.3-6.7-5.5c-1.5,2-3.3,5.1-5.4,9.2
				c-1.1,2.3-1.9,4-2.5,5.1c0-0.5,0-1-0.1-1.5c-0.2-1.5-1-3-2.3-4.5c-1.3-1.5-3.5-3.4-6.7-5.6c-1.5,2.1-3.3,5.2-5.4,9.3
				c-2.1,4.1-3.2,6.4-3.3,6.9C75.2,109.9,76.5,111.2,79,113.1z M94,134.4c-1.4,0.1-2.3,0.6-2.6,1.4c-7.5,15.2-10.8,23-9.9,23.3
				l2.1,1.1l-3.4,5.7c-2.7,5-4.3,9.9-4.7,14.7c0,6.6,2.7,9.9,8.1,9.9c6.4,0,12.4-5.2,17.9-15.5c3.8-7.1,5.7-14.1,5.7-20.9
				c0-6.6-2.2-11.9-6.7-15.9C97.6,135.6,95.4,134.3,94,134.4z M93.3,175.8c-2.1,1.3-4,1.9-5.8,1.9c-4.1,0-6.1-1.6-5.8-5
				c0-1.2,0.8-3.1,2.3-5.9c1.5-2.8,2.7-4.2,3.6-4.3c1.1,0.1,2.3,0.6,3.6,1.6c3.6,2.5,5.4,4.9,5.4,7.3
				C96.4,173,95.4,174.5,93.3,175.8z"/>
		</g>
	</g>
</g>
</svg>
