<?xml version="1.0" encoding="utf-8"?>
<!-- Generator: Adobe Illustrator 28.3.0, SVG Export Plug-In . SVG Version: 6.00 Build 0)  -->
<svg version="1.1" id="Layer_1" xmlns="http://www.w3.org/2000/svg" xmlns:xlink="http://www.w3.org/1999/xlink" x="0px" y="0px"
	 viewBox="0 0 100 100" style="enable-background:new 0 0 100 100;" xml:space="preserve">
<style type="text/css">
	.st0{fill-rule:evenodd;clip-rule:evenodd;fill:#2E3E36;}
</style>
<g id="Ellipse_8_copy_8">
	<path class="st0" d="M49.8,13c-20.5,0-37.1,16.6-37.1,37.1c0,0,0,0,0,0h3.8c0-18.3,14.9-33.2,33.2-33.2C68.1,16.9,83,31.8,83,50.1
		h3.8C86.9,29.6,70.3,13,49.8,13C49.8,13,49.8,13,49.8,13z"/>
</g>
<g id="Ellipse_8_copy_10">
	<path class="st0" d="M14.7,46.3C7.5,46.3,1.6,52,1.4,59.2l0,0v14.9l0,0C1.6,81.5,7.7,87.3,15,87.1c7-0.2,12.7-5.9,12.9-12.9l0,0
		V59.2l0,0C27.7,52,21.9,46.3,14.7,46.3z M24,73.8c0.2,5.2-3.9,9.5-9.1,9.7s-9.5-3.9-9.7-9.1c0-0.2,0-0.4,0-0.6V59.6
		c-0.2-5.2,3.9-9.5,9.1-9.7s9.5,3.9,9.7,9.1c0,0.2,0,0.4,0,0.6V73.8z M98.4,59.2c-0.2-7.3-6.3-13.1-13.6-12.9
		c-7,0.2-12.7,5.9-12.9,12.9l0,0v14.9l0,0c0.2,7.3,6.3,13.1,13.6,12.9c7-0.2,12.7-5.9,12.9-12.9l0,0V59.2z M94.5,73.8
		c0.2,5.2-3.9,9.5-9.1,9.7c-5.2,0.2-9.5-3.9-9.7-9.1c0-0.2,0-0.4,0-0.6V59.6c-0.2-5.2,3.9-9.5,9.1-9.7c5.2-0.2,9.5,3.9,9.7,9.1
		c0,0.2,0,0.4,0,0.6V73.8z"/>
</g>
</svg>
