<?xml version="1.0" encoding="utf-8"?>
<!-- Generator: Adobe Illustrator 28.3.0, SVG Export Plug-In . SVG Version: 6.00 Build 0)  -->
<svg version="1.1" id="Layer_1" xmlns="http://www.w3.org/2000/svg" xmlns:xlink="http://www.w3.org/1999/xlink" x="0px" y="0px"
	 viewBox="0 0 100 100" style="enable-background:new 0 0 100 100;" xml:space="preserve">
<style type="text/css">
	.st0{fill:#2D3D35;}
</style>
<g id="Rounded_Rectangle_1_copy_72">
	<g>
		<path class="st0" d="M60,61h20.1c1,0,1.8-0.8,1.8-1.8c0-1-0.8-1.8-1.8-1.8H60c-1,0-1.8,0.8-1.8,1.8C58.4,60.3,59.2,61,60,61z
			 M60,37.6h20.1c1,0,1.8-0.8,1.8-1.8s-0.8-1.8-1.8-1.8H60c-1,0-1.8,0.8-1.8,1.8C58.4,36.9,59.2,37.6,60,37.6z M60,49.3h20.1
			c1,0,1.8-0.8,1.8-1.8s-0.8-1.8-1.8-1.8H60c-1,0-1.8,0.8-1.8,1.8S59.2,49.3,60,49.3z M19,37.6h20.1c1,0,1.8-0.8,1.8-1.8
			s-0.8-1.8-1.8-1.8H19c-1,0-1.8,0.8-1.8,1.8C17.4,36.9,18.1,37.6,19,37.6z M96.9,25.3h-5.3c-1,0-1.8,0.8-1.8,1.8s0.8,1.8,1.8,1.8
			h3.5v51.6H4.9V28.7h3.5c1,0,1.8-0.8,1.8-1.8c0-1-0.8-1.8-1.8-1.8H3.1c-1,0-1.8,0.8-1.8,1.8v55c0,1,0.8,1.8,1.8,1.8h93.2
			c0.1,0,0.2,0,0.2,0c0.1,0,0.2,0,0.2,0c1,0,1.8-0.8,1.8-1.8v-55C98.5,26.1,97.8,25.3,96.9,25.3z M19,49.3h20.1c1,0,1.8-0.8,1.8-1.8
			s-0.8-1.8-1.8-1.8H19c-1,0-1.8,0.8-1.8,1.8S18.1,49.3,19,49.3z M19,61h20.1c1,0,1.8-0.8,1.8-1.8c0-1-0.8-1.8-1.8-1.8H19
			c-1,0-1.8,0.8-1.8,1.8C17.4,60.3,18.1,61,19,61z"/>
	</g>
</g>
<g id="Rounded_Rectangle_1_copy_79">
	<g>
		<path class="st0" d="M92.6,17.8L92.6,17.8L92.6,17.8c0-0.1,0-0.2,0-0.2c-0.1-0.7-0.8-1.2-1.5-1.3l0,0H61.4c-4.9,0-9,2.6-11.4,6.5
			c-2.3-3.9-6.5-6.5-11.4-6.5H9.3l0,0H9.2c-0.8,0-1.3,0.4-1.5,1.1c-0.1,0.1-0.1,0.2-0.1,0.4c0,9.2,0,57.8,0,57.8l0,0
			c0.1,0.9,0.8,1.5,1.8,1.5h28.9c0,0,7.3-0.2,8.6,3.2h6.8c1.3-3.4,8.6-3.2,8.6-3.2h28.9c0.9,0,1.7-0.7,1.8-1.5l0,0
			C92.6,75.6,92.6,27.4,92.6,17.8C92.6,17.9,92.6,17.8,92.6,17.8z M48.1,29.5v47c-3.2-3-10.1-2.9-10.1-2.9H11.1V19.6h26.8
			c5.2,0,9.4,3.6,10.4,8.5C48.1,28.6,48.1,29,48.1,29.5z M88.9,73.7H62c0,0-6.9-0.1-10.1,2.9V29.5c0-0.4,0-0.9-0.1-1.3
			c1-4.9,5.3-8.5,10.4-8.5h26.7v54.1H88.9z"/>
	</g>
</g>
</svg>
