<?xml version="1.0" encoding="utf-8"?>
<!-- Generator: Adobe Illustrator 28.3.0, SVG Export Plug-In . SVG Version: 6.00 Build 0)  -->
<svg version="1.1" id="Layer_1" xmlns="http://www.w3.org/2000/svg" xmlns:xlink="http://www.w3.org/1999/xlink" x="0px" y="0px"
	 viewBox="0 0 100 100" style="enable-background:new 0 0 100 100;" xml:space="preserve">
<style type="text/css">
	.st0{fill:#2E3E36;}
</style>
<g id="Shape_21">
	<g>
		<path class="st0" d="M48.2,47.6l-16.6-9.7C28,36.5,27.4,40,27.4,40v19.7c0.7,3.7,4.2,2.1,4.2,2.1l16.3-9.5
			C51.1,49.8,48.2,47.6,48.2,47.6z M30.5,58.7V41.3l15,8.4L30.5,58.7z"/>
	</g>
</g>
<g id="Shape_19">
	<g>
		<path class="st0" d="M87.3,29.8l-16.8,7.4v-7.7c0-7.3-5.9-13.1-13.1-13.1H14c-7.3,0-13.1,5.9-13.1,13.1v41
			c0,7.3,5.9,13.1,13.1,13.1h43.4c7.3,0,13.1-5.9,13.1-13.1v-7.6l16.3,7.3c12.4,3.8,12.4-9.5,12.4-9.5V39.5
			C99.2,25.8,87.3,29.8,87.3,29.8z M67.1,69.7c0,5.8-4.7,10.5-10.5,10.5H14.8C9,80.2,4.3,75.5,4.3,69.7V30.3
			c0-5.8,4.7-10.5,10.5-10.5h41.8c5.8,0,10.5,4.7,10.5,10.5V69.7z M95.5,39v20.8c-0.7,10.7-8.7,6.6-8.7,6.6l-16.3-7.1V41l17.4-7.5
			C95.9,30,95.5,39,95.5,39z"/>
	</g>
</g>
</svg>
