<?xml version="1.0" encoding="utf-8"?>
<!-- Generator: Adobe Illustrator 28.3.0, SVG Export Plug-In . SVG Version: 6.00 Build 0)  -->
<svg version="1.1" id="Layer_1" xmlns="http://www.w3.org/2000/svg" xmlns:xlink="http://www.w3.org/1999/xlink" x="0px" y="0px"
	 viewBox="0 0 512 512" style="enable-background:new 0 0 512 512;" xml:space="preserve">
<style type="text/css">
	.st0{fill-rule:evenodd;clip-rule:evenodd;fill:#2E3E36;}
	.st1{fill-rule:evenodd;clip-rule:evenodd;fill:#719485;}
</style>
<path class="st0" d="M468.5,144c-1-12-3.1-23-8.4-33.4c-8.2-16.1-21.2-29.1-37.3-37.3c-10.4-5.3-21.4-7.4-33.4-8.4
	C377.8,64,363.7,64,346.5,64h-181c-17.2,0-31.3,0-42.9,0.9c-12,1-23,3.1-33.4,8.4c-16.1,8.2-29.1,21.2-37.3,37.3
	C46.6,121,44.5,132,43.5,144c-0.9,11.6-0.9,25.7-0.9,42.9v138.3c0,17.2,0,31.4,0.9,42.9c1,12,3.1,23,8.4,33.4
	c8.2,16.1,21.2,29.1,37.3,37.3c10.4,5.3,21.4,7.4,33.4,8.4c11.6,0.9,25.7,0.9,42.9,0.9h181c17.2,0,31.4,0,42.9-0.9
	c12-1,23-3.1,33.4-8.4c16.1-8.2,29.1-21.2,37.3-37.3c5.3-10.4,7.4-21.4,8.4-33.4c0.9-11.6,0.9-25.7,0.9-42.9V186.9
	C469.4,169.7,469.4,155.5,468.5,144z M426.6,324.2c0,18.3,0,30.7-0.8,40.3c-0.7,9.4-2.1,14.2-3.8,17.5c-4,8-10.6,14.5-18.6,18.6
	c-3.4,1.7-8.1,3-17.5,3.8c-9.6,0.8-22,0.8-40.3,0.8H166.4c-18.3,0-30.7,0-40.3-0.8c-9.4-0.7-14.2-2.1-17.5-3.8
	c-8-4-14.5-10.6-18.6-18.6c-1.7-3.4-3-8.1-3.8-17.5c-0.8-9.6-0.8-22-0.8-40.3V187.7c0-18.3,0-30.7,0.8-40.3
	c0.7-9.4,2.1-14.2,3.8-17.5c4-8,10.6-14.5,18.6-18.6c3.4-1.7,8.1-3,17.5-3.8c9.6-0.8,22-0.8,40.3-0.8h179.2c18.3,0,30.7,0,40.3,0.8
	c9.4,0.7,14.2,2.1,17.5,3.8c8,4,14.5,10.6,18.6,18.6c1.7,3.4,3,8.1,3.8,17.5c0.8,9.6,0.8,22,0.8,40.3V324.2z"/>
<path class="st1" d="M190,224c-14.3,0-30,13.9-30,36.3s15.7,36.3,30,36.3c6.9,0,13.5-2.8,19-8.2c8.4-8.3,21.9-8.2,30.2,0.2
	c8.3,8.4,8.2,21.9-0.2,30.2c-12.6,12.5-29.8,20.6-49,20.6c-42.4,0-72.7-37.7-72.7-78.9s30.3-78.9,72.7-78.9c19.2,0,36.3,8.1,49,20.6
	c8.4,8.3,8.4,21.8,0.2,30.2c-8.3,8.4-21.8,8.4-30.2,0.2C203.5,226.8,196.9,224,190,224z"/>
<path class="st1" d="M339.4,224c-14.3,0-30,13.9-30,36.3s15.7,36.3,30,36.3c6.9,0,13.5-2.8,19-8.2c8.4-8.3,21.9-8.2,30.2,0.2
	c8.3,8.4,8.2,21.9-0.2,30.2c-12.6,12.5-29.8,20.6-49,20.6c-42.4,0-72.7-37.7-72.7-78.9s30.3-78.9,72.7-78.9c19.2,0,36.3,8.1,49,20.6
	c8.4,8.3,8.4,21.8,0.2,30.2c-8.3,8.4-21.8,8.4-30.2,0.2C352.9,226.8,346.2,224,339.4,224z"/>
</svg>
