<svg id="Layer_1" data-name="Layer 1" xmlns="http://www.w3.org/2000/svg" width="100" height="100" viewBox="0 0 100 100"><defs><style>.cls-1{fill:#fff;}.cls-1,.cls-2{fill-rule:evenodd;}.cls-2{fill:#fff;}</style></defs><g id="Rounded_Rectangle_1_copy_47" data-name="Rounded Rectangle 1 copy 47"><path class="cls-1" d="M79.83,29.13a3.6,3.6,0,0,0-5.1,0L53.62,50.32V11.59a3.62,3.62,0,0,0-7.24,0V50.26L25.26,29.07a3.6,3.6,0,0,0-5.1,0l0,0a3.63,3.63,0,0,0,0,5.12L47.33,61.48a3.6,3.6,0,0,0,3.5.93,3.51,3.51,0,0,0,1.93-1L79.83,34.25A3.63,3.63,0,0,0,79.83,29.13Z"/></g><g id="Ellipse_9_copy_2" data-name="Ellipse 9 copy 2"><path class="cls-2" d="M98.7,46.38a3.62,3.62,0,0,0-7.21,0h0V62.53A22.26,22.26,0,0,1,69.21,84.79H30.79A22.26,22.26,0,0,1,8.53,62.53V46.38h0a3.62,3.62,0,0,0-7.21,0h0V64.2A27.83,27.83,0,0,0,29.12,92H70.88A27.83,27.83,0,0,0,98.71,64.2V46.38Z"/></g></svg>