<?xml version="1.0" encoding="utf-8"?>
<!-- Generator: Adobe Illustrator 28.3.0, SVG Export Plug-In . SVG Version: 6.00 Build 0)  -->
<svg version="1.1" id="Layer_1" xmlns="http://www.w3.org/2000/svg" xmlns:xlink="http://www.w3.org/1999/xlink" x="0px" y="0px"
	 viewBox="0 0 118.5 51" style="enable-background:new 0 0 118.5 51;" xml:space="preserve">
<style type="text/css">
	.st0{fill-rule:evenodd;clip-rule:evenodd;fill:#fff}
</style>
<g id="MONIB2">
	<path class="st0" d="M105.1,13.5H77.6v8.8l0,0v6.2h-7.8v-15h-8.7v15H52v-15h-8.7v15H9.9L10,13.6H1.2v14.1c0,3.4,0.8,5.9,2.4,7.6
		c1.6,1.7,4,2.4,7.2,2.4h75.5V22.3h6.1c-0.6,1.5-0.8,3.1-0.8,4.7c0.1,7.4,6.1,13.4,13.5,13.3c7.4-0.1,13.4-6.1,13.3-13.5
		C118.5,19.5,112.5,13.5,105.1,13.5L105.1,13.5z M105.1,31.5c-2.5,0-4.5-2-4.5-4.4s2-4.5,4.4-4.5s4.5,2,4.5,4.4c0,0,0,0,0,0
		C109.6,29.5,107.6,31.5,105.1,31.5C105.1,31.5,105.1,31.5,105.1,31.5L105.1,31.5z M74.2,9.2c2.5,0.1,4.6-2,4.7-4.5
		C79,2.2,77,0.1,74.4,0c-2.5-0.1-4.6,2-4.7,4.5c0,0,0,0.1,0,0.1C69.7,7.1,71.7,9.1,74.2,9.2z M27,41.8c-2.5-0.1-4.6,2-4.7,4.5
		c-0.1,2.5,2,4.6,4.5,4.7c2.5,0.1,4.6-2,4.7-4.5c0,0,0-0.1,0-0.1C31.5,43.9,29.5,41.8,27,41.8C27,41.8,27,41.8,27,41.8z M43.3,49.9
		h26.5v-7H43.3V49.9z"/>
</g>
</svg>
