<?xml version="1.0" encoding="utf-8"?>
<!-- Generator: Adobe Illustrator 28.3.0, SVG Export Plug-In . SVG Version: 6.00 Build 0)  -->
<svg version="1.1" id="Layer_1" xmlns="http://www.w3.org/2000/svg" xmlns:xlink="http://www.w3.org/1999/xlink" x="0px" y="0px"
	 viewBox="0 0 100 100" style="enable-background:new 0 0 100 100;" xml:space="preserve">
<style type="text/css">
	.st0{fill:#719485;}
	.st1{fill:#2E3E36;}
</style>
<g id="Rounded_Rectangle_1_copy_52">
	<g>
		<path class="st0" d="M64.4,62.3c-0.8-0.8-2-0.8-2.8,0l-8.8,9.1V55.2c0-1.1-0.9-2-2-2c-1.1,0-2,0.9-2,2v16.2l-9.1-9.1
			c-0.8-0.8-2-0.8-2.8,0l0,0c-0.8,0.8-0.8,2,0,2.8l12.4,12.4c0.5,0.5,1.2,0.7,1.9,0.5c0.4-0.1,0.8-0.2,1.1-0.5l12-12.3
			C65.2,64.3,65.2,63.1,64.4,62.3z"/>
	</g>
</g>
<g id="Rounded_Rectangle_3_copy_2">
	<g>
		<path class="st1" d="M83.8,14.5H17.2C8.8,14.5,2,21.3,2,29.6v40.9c0,8.4,6.8,15.1,15.1,15.1h66.6c8.4,0,15.1-6.8,15.1-15.1V29.6
			C98.9,21.3,92.1,14.5,83.8,14.5z M95,69.6c0,6.7-5.4,12.1-12.1,12.1H18.1C11.4,81.7,6,76.3,6,69.6V30.5c0-6.7,5.4-12.1,12.1-12.1
			h64.8c6.7,0,12.1,5.4,12.1,12.1V69.6z"/>
	</g>
</g>
<g id="Rounded_Rectangle_3_copy_4">
	<g>
		<path class="st1" d="M51.2,47.4L10.6,20.3C9.6,19.7,8.4,20,7.9,21c-0.5,0.9-0.2,2.1,0.7,2.7l40.6,27.1c0.9,0.5,2.1,0.2,2.7-0.7
			C52.5,49.1,52.1,47.9,51.2,47.4z"/>
	</g>
</g>
<g id="Rounded_Rectangle_3_copy_5">
	<g>
		<path class="st1" d="M93.3,76.1L60.5,42.7c-0.9-0.5-2.1-0.2-2.7,0.7s-0.2,2.1,0.7,2.7l32.8,33.5c0.9,0.5,2.1,0.2,2.7-0.7
			C94.5,77.9,94.2,76.7,93.3,76.1z"/>
	</g>
</g>
<g id="Rounded_Rectangle_3_copy_9">
	<g>
		<path class="st1" d="M42.2,43.4c-0.5-0.9-1.7-1.3-2.7-0.7L6.8,76.1c-0.9,0.5-1.3,1.7-0.7,2.7c0.5,0.9,1.7,1.3,2.7,0.7l32.8-33.5
			C42.5,45.5,42.8,44.3,42.2,43.4z"/>
	</g>
</g>
<g id="Rounded_Rectangle_3_copy_6">
	<g>
		<path class="st1" d="M93.2,20.9c-0.5-0.9-1.7-1.3-2.7-0.7L49.9,47.3c-0.9,0.5-1.3,1.7-0.7,2.7c0.5,0.9,1.7,1.3,2.7,0.7l40.6-27.1
			C93.5,23.1,93.8,21.9,93.2,20.9z"/>
	</g>
</g>
</svg>
