<svg id="Layer_1" data-name="Layer 1" xmlns="http://www.w3.org/2000/svg" viewBox="0 0 283.02 96.31"><defs><style>.cls-1{fill:#fff;fill-rule:evenodd;}</style></defs><g id="Shape_4" data-name="Shape 4"><path class="cls-1" d="M273.82,42.52c-1.39.95-2.77,3.83-2.77,3.83a1.12,1.12,0,0,0,.36,1.55,37.75,37.75,0,0,1,4.82,3.34,1.07,1.07,0,0,0,1.48,0,15.18,15.18,0,0,0,2-3.05c.71-1.24-.14-1.7-.14-1.7C277.36,44.75,273.82,42.52,273.82,42.52Zm17.86-5.39,3.68,4.61-2.55,3.54c-.5.85,0,1.21,0,1.21l4.25,4.32c.36.35.57.28.57.28a16.77,16.77,0,0,0,3.4-4c-1.42-1.94-4.89-5.66-4.89-5.66l2.48-3.41a1.83,1.83,0,0,0-.14-2.12,26.5,26.5,0,0,0-4-4.26,14.91,14.91,0,0,0-3.12,4.9A1.47,1.47,0,0,0,291.68,37.13ZM173.39,7.72s-.79.67-.56,1.13c0,0,.37.32,1.41-.85A3.42,3.42,0,0,0,175,6.73s.13-.76.78-.14c0,0,1,1.31,5.6,1.34a22.79,22.79,0,0,0,8.08-2.26s2.45-1.14,2.77-.78c0,0,.39.21-.43.85,0,0-.55.39-.57.49s.57.33,2.06-1.27c0,0,.54-.83-.14-1.28a4.2,4.2,0,0,0-3,.64s-5.36,2.55-8.79,2.13c0,0-5.12,0-7.16-4.26,0,0-.07-.61-.49-.21a2.64,2.64,0,0,0-.71.85s-.18.18.21.92c0,0,1.28,2.09.78,3A2.42,2.42,0,0,1,173.39,7.72ZM191,12c-1.06,1.39-2.48,3.83-2.48,3.83a.66.66,0,0,0,.35,1L194,20.12c1.13.57,1.63,0,1.63,0a21.85,21.85,0,0,0,1.91-3.26l5,3.26c1.81,1.24,2.48-.14,2.48-.14.36-.67,1.77-2.83,1.77-2.83.78-1.17-.21-1.63-.21-1.63L201.32,12c-.57-.28-.64-.07-.64-.07-.85.43-2.84,3.76-2.84,3.76l-.14-.14-5.38-3.76C191.25,11.16,191,12,191,12Zm-4.18,48.69A162.43,162.43,0,0,0,185,39.47s-1.85-10.63-2-15.59c0,0,.46-.11.57-1,0,0,1,.1,2.2,3a26.72,26.72,0,0,0-1.28-5.67s-1.59-5.45-3.12-9.49c0,0-.42-.89-1-.14,0,0-1.84,2.9-2.27,3.47,0,0-.71.53.07,1.7,0,0,1.17,1.91,1.28,6.09A219.58,219.58,0,0,0,182,46.13S185,68,183.39,73.56C183.39,73.56,187.14,71.93,186.79,60.66Zm55.84-6.16A71.84,71.84,0,0,0,250,55.84a8.33,8.33,0,0,0,1.71-1.77c1.52-2.3-.64-1.91-.64-1.91-8.65-1.07-7.8-2.2-7.8-2.2,9.5-7.58,46.35-24.73,46.35-24.73a4.24,4.24,0,0,0,3.12-2.34c1.2-2-1.7-.71-1.7-.71-6.24,2.41-20.7,9.78-20.7,9.78-22.67,11-25.79,14.46-25.79,14.46-3.4,3-3.62,4.53-3.62,4.53C239.87,54.21,242.63,54.5,242.63,54.5ZM223.14,35.93s2.41-1.88,8.44-1.07c0,0,1.88.32,2,.64,0,0-3.4,4.15-11.05,8,0,0,8.47-.64,11.05-4.54,0,0,4.36-5.52,3.48-8.5,0,0-2-2.94-11.63-.14,0,0-1,0-1.77,1.49L222,35.22S221.62,36.67,223.14,35.93ZM261.2,58.39c.18,1.24,1.7,1.21,1.7,1.21a3.56,3.56,0,0,0,2.91-1.49,2.89,2.89,0,0,0-1.06-3.69c-1.07-.78-1.35-.35-1.35-.35a1.75,1.75,0,0,0-.71,1.28C261.06,57.12,261.2,58.39,261.2,58.39ZM263,55.77s.74-.07,1.63,1.35c0,0,.41.66-.63.85,0,0-1.19.23-1.56-.71C262.41,57.26,262.27,56.72,263,55.77Zm10.63,31-.63.92c-.31.38.28,1.14.28,1.14.24.23.14.28.14.28a2.63,2.63,0,0,1-.92.21c-1.2-.33-1-1-1-1,.45-.83,0-.92,0-.92-.47,0-1.35,1.35-1.35,1.35a2,2,0,0,1-1.49,1.27,1.87,1.87,0,0,1-1.7-.92c-2.23-3.15-7.23.64-7.23.64a21.62,21.62,0,0,1-4,2.2c-2.95,1.7-9.93,2.26-9.93,2.26-.92.18.07.64.07.64,6.63,1.6,14.6-4.18,14.6-4.18,3.74-2.53,5.46-.21,5.46-.21a1.85,1.85,0,0,0,1.7,1.06c2.06-.14,2.34-1.49,2.34-1.49.41-.71.5,0,.5,0,.07.76,1.27.92,1.27.92,2.86-.09,3-2.19,3-2.19.16-.69-.64-1.85-.64-1.85C273.79,86.55,273.6,86.81,273.6,86.81ZM223,85.47l2.3-3.53a1.86,1.86,0,0,0-.26-2.12,26.46,26.46,0,0,0-4.26-4,14.93,14.93,0,0,0-2.85,5,1.5,1.5,0,0,0,.38.55l3.93,4.4-2.36,3.68c-.45.87.07,1.2.07,1.2l4.47,4.09c.38.33.58.25.58.25a17.1,17.1,0,0,0,3.19-4.14C226.71,89,223,85.47,223,85.47Zm-82-3.69c14.21.6,29.9-9.21,29.9-9.21,5.81-3,6.45-7.09,6.45-7.09,3-5.81-3.82-15.45-3.82-15.45-.54-1,.78-.42.78-.42,1.16,1.34,1.63,1,1.63,1,.39-.32-.08-.78-.08-.78-.88-2-5-8.15-5-8.15-.42-.89-.85-.36-.85-.36a19.17,19.17,0,0,0-1.77,4.4,1.17,1.17,0,0,0,.28,1.41,19.28,19.28,0,0,1,1.92,4.54,39.38,39.38,0,0,0,3,7.23,15.21,15.21,0,0,1,2.2,5.17.92.92,0,0,1-.5,1.21A40.76,40.76,0,0,1,169,68.74c-12.93,6.56-23.32,7.44-23.32,7.44-8.86,1.53-13.89-2.55-13.89-2.55a10.77,10.77,0,0,1-2.26-10.06c.31-.82.63-.64.63-.64l23.25-4.75c5.74-1.2,8.93-2.2,8.93-2.2a8.22,8.22,0,0,0,5-7.3,10,10,0,0,0-5-7.44c-4.47-2.19-17.58.64-17.58.64-13.46,2.48-21,1.91-21,1.91-7.93-.32-9.85-2.12-9.85-2.12-1.06-.39-.78-.85-.78-.85l.5-.71a49,49,0,0,1,15.52-10c3.37-1.67,4.89.14,4.89.14,1,1.24,1.84-.29,1.84-.29l.92-1.84c1.39-2.44-.56-3.33-.56-3.33-1.7-1.56-5.89.5-5.89.5-4.81,1.56-11.48,6.3-11.48,6.3-6.66,5.18-9.21,10.07-9.21,10.07-2.55,4.25,2.34,6,2.34,6,9.5,3.76,30.4-.92,30.4-.92,9-1.63,13.54-1.42,13.54-1.42,5.31.07,6.73,6.17,6.73,6.17C131,59.46,115.28,60,115.28,60c-7.83.64-11.06-.78-11.06-.78-3.11-.71-4.25-4.32-4.25-4.32-1-2.41-2-5.17-2-5.17-.07-.82-.64-.29-.64-.29l-2.13,3.9a1.32,1.32,0,0,0-.28,1.7c3.54,6.81,4,11.2,4,11.2.46,4.57-.85,4.68-.85,4.68a20.79,20.79,0,0,1-4,2.69,125.76,125.76,0,0,1-27.5,9.57,216.44,216.44,0,0,1-23.32,4.18c-2.23,0-2.05.5-2.05.5-.43.7.92.77.92.77,15.13,1.17,19.49.86,19.49.86A126.62,126.62,0,0,0,89.7,80.22c8.61-3.44,10.49-8.08,10.49-8.08,1.48-2.94,1.55-7.58,1.55-7.58C105.11,67,128,63.28,128,63.28a18.38,18.38,0,0,0-.36,11.48C129.74,82.31,141,81.78,141,81.78Zm16.86-51.66A37.71,37.71,0,0,1,163,33a1.08,1.08,0,0,0,1.48-.13,15.05,15.05,0,0,0,1.72-3.2c.6-1.3-.29-1.69-.29-1.69-2.34-1.54-6.06-3.46-6.06-3.46-1.29,1.07-2.42,4.05-2.42,4.05A1.11,1.11,0,0,0,157.87,30.12Zm140.47,31c-1.1,1.2-2.13,5.24-2.13,5.24a.2.2,0,0,0,.14.28c2.44,3.1,2.77,4.47,2.77,4.47.45.68-.07.92-.07.92a11,11,0,0,1-10.7,2.06c2-1.56,2.76-5.89,2.76-5.89,1.7-9.73-2.69-10.27-2.69-10.27-5.37-.17-7.8,7.58-7.8,7.58-2.1,5.6.21,8.08.21,8.08A15.06,15.06,0,0,1,275,74.91c-5.43,0-6.45-3.34-6.45-3.34-.28-2.9-.78-2.76-.78-2.76-.54-.24-1.84,3.12-1.84,3.12a5.47,5.47,0,0,1-3.47,3.26c-3.07.78-3.9-.36-3.9-.36a2,2,0,0,1-.92-2.48l.64-1.13a2.65,2.65,0,0,0,.42-2c-.64-.67-3,3.26-3,3.26a8.14,8.14,0,0,1-5.88,4c-3.57.19-4.46-1.48-4.46-1.48a1.89,1.89,0,0,1-.36-2.13,7.58,7.58,0,0,0,.43-.64,3.08,3.08,0,0,0,.49-2.41c-.4-.21-1.41.71-1.41.71-1,.88-3,2.55-3,2.55a10.35,10.35,0,0,1-7,2.63c-5.35-.64-6.38-6-6.38-6a45.14,45.14,0,0,1-.49-4.82c-.71-8.89-3-8.64-3-8.64-1.65-.4-2.69,6.16-2.69,6.16a2.39,2.39,0,0,1-.57,1.14c-3.93,3.72-8.93,1.48-8.93,1.48-1.31-3.57-2.76-6.52-2.76-6.52-.25-.85-.78-.21-.78-.21a17.82,17.82,0,0,0-1.77,4.11,1.78,1.78,0,0,0,0,1.49c4.89,9.39,4.11,14.88,4.11,14.88-7.3,8.51-32.25,13.26-32.25,13.26C175,92.87,160,95.6,160,95.6c-3.58.92-3.33,1.42-3.33,1.42,11.52,1.7,17.29,1,17.29,1,36.43-5,38.84-18.64,38.84-18.64,1.49-3.19.92-8.15.92-8.15,8.22.5,9.78-8.65,9.78-8.65,1.17,1.81,1.84,10.63,1.84,10.63a8,8,0,0,0,5.25,7.38c5.95,1.8,11.12-3.9,11.12-3.9.78-.85.78-.57.78-.57-1.84,4.89,3.55,5.6,3.55,5.6,5,.57,8.57-4.25,8.57-4.25.25-.61.57-.43.57-.43a4.12,4.12,0,0,0,3.33,4,8.14,8.14,0,0,0,7.65-4.89c.14-.46.43-.49.43-.49,1,4.35,5.53,4.6,5.53,4.6,4.53.46,11.41-2.9,11.41-2.9a9.06,9.06,0,0,0,8.08,2.69c9-1.67,9.7-8.51,9.7-8.51A12.69,12.69,0,0,0,298.34,61.09Zm-16.66,6.45s1.3-4.38,4.4-4.33c0,0,2.86.4,2.9,6a12.37,12.37,0,0,1-4.18,2.69A9.73,9.73,0,0,1,281.68,67.54ZM190.62,78.45c6.76-3.54,7.15-8.51,7.15-8.51,1.56-4.81-.42-10.41-.42-10.41a21.41,21.41,0,0,1-1-3.76s-.32-.46.28-.71c2-.81,6.66-2.9,6.66-2.9A9.9,9.9,0,0,0,208.12,46c2.76-11.62-5-18.21-5-18.21-3.54-3.55-6.87-.64-6.87-.64-5,4.25-4.68,8.65-4.68,8.65.17,6.73,8.5,5.38,8.5,5.38A12.14,12.14,0,0,1,203,41.1a4.39,4.39,0,0,1,3.54,3.9c.36,2.27-3.4,3.19-3.4,3.19A37,37,0,0,1,198.62,50c-3.72,1.13-5,6.17-5,6.17-1.06,2.48.43,6.09.43,6.09a25.72,25.72,0,0,1,1.63,7.3,2.35,2.35,0,0,1-1,2.13c-9.57,7.08-32.32,11-32.32,11-17.15,2.69-26,4.75-26,4.75-1,.28,0,.43,0,.43a71.13,71.13,0,0,0,10.56,1.2c8.18.14,10-.57,10-.57C177.22,85.78,190.62,78.45,190.62,78.45Zm10-43.23c-5.46.6-5.74-1.21-5.74-1.21a3.7,3.7,0,0,1,3.4-2.19c2,.42,4,3.19,4,3.19ZM74.25,61.09C74.64,60,75,60,75,60a7.31,7.31,0,0,0,6,5.32,4.56,4.56,0,0,0,6-3.47c1.84-4.47.36-6.81.36-6.81C95.68,48.26,88.63,38,88.63,38c-.88-1.2-.42-1.34-.42-1.34a2.71,2.71,0,0,1,1.49.78,1.55,1.55,0,0,0,1.41.7c-1-2.87-5.52-8.64-5.52-8.64-.46-.75-.64-.78-.64-.78-.92,0-1.28,1.77-1.28,1.77-.28,1.52-1,3.83-1,3.83a.87.87,0,0,0,.5.49,12,12,0,0,1,1,2.63c.88,2.41,2.62,5.95,2.62,5.95a12,12,0,0,1,2,6.31c-2.8,2-7.45,0-7.45,0a5,5,0,0,0-2.83-.78c-4.32,1.56-6.31,11.9-6.31,11.9a4,4,0,0,1-1.49,3,11.49,11.49,0,0,1-2.76,2.41C60,71.54,49.23,74.34,49.23,74.34a122.73,122.73,0,0,1-16.58,3.9,101.51,101.51,0,0,0-13.61,3c-1.24.46,0,.71,0,.71,3-.07,10.35.57,10.35.57a53.06,53.06,0,0,0,7.3.21c16-3.54,24.09-7.72,24.09-7.72A21.65,21.65,0,0,0,74.25,61.09Zm3.4-6.38s4.79,1.56,6.45,5.1c0,0-6.17-.07-6.95-4.82C77.15,55,77,54.4,77.65,54.71Zm22.82-24.95c.18,1.24,1.7,1.21,1.7,1.21a3.56,3.56,0,0,0,2.91-1.49A2.89,2.89,0,0,0,104,25.79c-1.06-.78-1.34-.35-1.34-.35a1.73,1.73,0,0,0-.71,1.27C100.33,28.49,100.47,29.76,100.47,29.76Zm1.77-2.62s.73-.07,1.63,1.35c0,0,.4.66-.64.85,0,0-1.18.23-1.56-.71C101.67,28.63,101.53,28.08,102.24,27.14Zm7.44,47.77a1.85,1.85,0,0,0-.14-2.13,26.19,26.19,0,0,0-4-4.25,14.82,14.82,0,0,0-3.12,4.89,1.47,1.47,0,0,0,.36.56l3.68,4.61-2.55,3.54c-.5.85,0,1.21,0,1.21l4.25,4.32c.36.36.57.29.57.29a17,17,0,0,0,3.4-4c-1.42-2-4.89-5.67-4.89-5.67ZM119.6,68c-.32.82-1.2,3.76-1.2,3.76a1.35,1.35,0,0,0,.28,1.7,20.6,20.6,0,0,1,3,7.86c1,4.58-.43,6.88-.43,6.88-1,2-.14,2.48-.14,2.48.85,0,1-.57,1-.57,6-12.47-2.12-22.6-2.12-22.6C119.6,67.78,119.6,68,119.6,68Z" transform="translate(-18.49 -1.84)"/></g></svg>