<svg id="Layer_1" data-name="Layer 1" xmlns="http://www.w3.org/2000/svg" width="100" height="100" viewBox="0 0 100 100"><defs><style>.cls-1{fill:#fff;}.cls-1,.cls-2{fill-rule:evenodd;}.cls-2{fill:#fff;}</style></defs><g id="Rounded_Rectangle_1_copy_57" data-name="Rounded Rectangle 1 copy 57"><path class="cls-1" d="M76,69.6a14.56,14.56,0,0,0-10.78,4.75L35.32,55a2.49,2.49,0,0,0-2.7,4.18L62.55,78.53A14.63,14.63,0,1,0,76,69.6Zm0,24.11a9.46,9.46,0,1,1,9.44-9.45A9.44,9.44,0,0,1,76,93.71Z"/></g><g id="Rounded_Rectangle_1_copy_56" data-name="Rounded Rectangle 1 copy 56"><path class="cls-2" d="M76,1.09A14.66,14.66,0,0,0,62.51,21.37L34.4,39.53a14.59,14.59,0,1,0,2.83,4.06l27.93-18A14.64,14.64,0,1,0,76,1.09ZM24,59.26a9.46,9.46,0,1,1,9.44-9.45A9.45,9.45,0,0,1,24,59.26ZM76,25.2a9.46,9.46,0,1,1,9.44-9.46A9.44,9.44,0,0,1,76,25.2Z"/></g></svg>