<svg id="Layer_1" data-name="Layer 1" xmlns="http://www.w3.org/2000/svg" viewBox="0 0 301.6 97.82"><defs><style>.cls-1{fill:#fff;fill-rule:evenodd;}</style></defs><g id="Shape_10" data-name="Shape 10"><path class="cls-1" d="M213.44,20.13c3.61,10.63-1.4,17-1.4,17-3.92,7.16-2.88,7.16-2.88,7.16.74.22,4-5.69,4-5.69,10.56-18.38-.37-31.07-.37-31.07-2.58-2.51-2.58-3.17-2.58-3.17-.37-1.18-.81-.67-.81-.67l-2.66,4.65c-.29,1.33,2.07,3.69,2.07,3.69A23.41,23.41,0,0,1,213.44,20.13Zm-4.5,33.8,2.28-4.06,6,3.7a10.3,10.3,0,0,0,3.69-4.88c-1.77-2.14-6.42-4.13-6.42-4.13a34.55,34.55,0,0,0-3.39,4.5c-1.41-1.1-7.16-4.35-7.16-4.35a11.09,11.09,0,0,0-3.18,5.46c.52.3,6,4,6,4C208.2,55.19,208.94,53.93,208.94,53.93Zm-48.79-33.8c3.62,10.63-1.4,17-1.4,17-3.91,7.16-2.88,7.16-2.88,7.16.74.22,4-5.69,4-5.69,10.56-18.38-.36-31.07-.36-31.07C156.9,5,156.9,4.34,156.9,4.34c-.37-1.18-.81-.67-.81-.67l-2.66,4.65C153.14,9.65,155.5,12,155.5,12A23.41,23.41,0,0,1,160.15,20.13Zm100.38,16s-3.29,1.18-10.85,6.2c0,0-1.22.7-2.07,3.47,0,0-.29.84.59.14,0,0,7.31-5.05,11.66-7a3.87,3.87,0,0,0,1.92-2.14S262.11,35.48,260.53,36.15ZM254,28.25s6.9-4.28,8.71-8.27a2.89,2.89,0,0,1,.73,1.26s.34.44,1-.3a1.57,1.57,0,0,0-.66-2.06s-.44.22-.15-.59c0,0,1.59-4.06-.37-5,0,0-.81-.48-2.51,2a2.55,2.55,0,0,0,.15,3.32,2.6,2.6,0,0,0,.67.67s.59.22.07.81c0,0-7.12,8.74-17.94,12.77C243.62,32.83,247.2,33.19,254,28.25Zm7.3-12a1.51,1.51,0,0,1,.89-1.26s.7,0,.81,1.55c0,0-.22.93-.29,1.41C262.67,17.92,261.26,17,261.26,16.22Zm-26,30.63c2.59-1.4,3.47-5.24,3.47-5.24-4.13-3.91-5.24-3.91-5.24-3.91-1.84,1.18-3.32,4.94-3.32,4.94A12.7,12.7,0,0,0,235.28,46.85Zm75.29,19.56C307.84,57.88,296,59.47,296,59.47,287,60.58,274.4,61,274.4,61c-15.5.66-19.7-.3-19.7-.3-7.31-1-8.27-3.69-8.27-3.69,6.31-5.53,10.78-7.3,10.78-7.3,8.22-4.36,10.4-3.91,10.4-3.91,2-.52,1.92.44,1.92.44.59.7,1.7-.3,1.7-.3a8.85,8.85,0,0,0,1.84-3.54c1.41-3.76-5.24-1.92-5.24-1.92-12.21,4-19,10.48-19,10.48-7.19,5.39-6.49,10-6.49,10,0,6,16.9,5.61,16.9,5.61,13.73,0,32.25-2.07,32.25-2.07,7.16-1.1,10.63,1.7,10.63,1.7,3.65,3.17,4.13,6,4.13,6-2.43.7-11.51,1.77-11.51,1.77-28.64,5.61-48.64,4.72-48.64,4.72-9.78-.07-10.55-1.47-10.55-1.47a14.91,14.91,0,0,0,1-13.29c-1.37-5.13-5.68-2.21-5.68-2.21-7.09,5.24-7,10.11-7,10.11a9.21,9.21,0,0,0,1.55,6c-5.9,1.66-8.56-2.07-8.56-2.07-1.84-3.25-1.4-4.94-1.4-4.94.66-2.29-.07-2.59-.07-2.59-1.18-.29-3.4,2.66-3.4,2.66-5.46,5.9-10,5.17-10,5.17a7.31,7.31,0,0,1-7.68-6.28,27,27,0,0,1-.88-5.31c-.23-2.73-.23-10.33-.23-10.33.08-3.18.37-23.47.37-23.47.37-26.06-3.91-29.6-3.91-29.6-.22.81-1.55,3.91-1.55,3.91-.81,1.29.3,3.62.3,3.62,3.24,8.93,1.92,40.15,1.92,40.15L190.63,68c.22,13.73,7.83,14,7.83,14,7.38,1.63,14.39-7.38,14.39-7.38-.22,6.72,2.8,8,2.8,8,4.65,4.13,13.51-1.33,13.51-1.33,6.12,6.35,38.89,1.55,38.89,1.55,11.22-1.4,28.57-4.21,28.57-4.21a75.82,75.82,0,0,0,9.3-1.77C312.38,74.3,310.57,66.41,310.57,66.41Zm-79.2,9.08c-6.05-2.81-5-6.28-5-6.28,3-3.17,5-2.51,5-2.51,2.73,2.07,3,6.87,3,6.87A13.56,13.56,0,0,1,231.37,75.49ZM67.15,61c3.77-4.91,2.59-13.14,2.59-13.14a10,10,0,0,0,5-1.18c4.28-2,4.42-7,4.42-7,.89-7.68-2-9.6-2-9.6a37.83,37.83,0,0,0-2.07,5.46,10.2,10.2,0,0,1,1.55,4.73c-2.51,1.92-6.27,1.62-6.27,1.62-3.54-.66-4.72-5.17-4.72-5.17-.11-1.36-.89-.59-.89-.59A26.09,26.09,0,0,0,62.87,40,2,2,0,0,0,63,42.13a26.76,26.76,0,0,1,4.06,12c.25,3-1.26,3.54-1.26,3.54C54.46,66.92,30,73.05,30,73.05c-6.09,1.37-18.9,3.84-18.9,3.84C9.18,77.26,9.22,78,9.22,78c-.15.81.81.73.81.73,2.76-.14,10.7.3,10.7.3a28.78,28.78,0,0,0,7.9-.44C39.25,77,53.35,70.25,53.35,70.25,64.13,65.67,67.15,61,67.15,61ZM62.21,18.29c1.28,1.78,1.92.66,1.92.66a8.38,8.38,0,0,0,1.77-5.68,42.84,42.84,0,0,0-5.32-4.43c-1.32.81-3.1,5.31-3.1,5.31C59.79,15.09,62.21,18.29,62.21,18.29ZM47.89,57.11c8.6-2.36,8.34-9.08,8.34-9.08,1.4-6.72-5.31-12.84-5.31-12.84a58.65,58.65,0,0,1,6.49-8.86c2,1.51,4.28,3,4.28,3,1.59.15,3-4.57,3-4.57l5.17,3.69c1.85,1.1,2.88-1.92,2.88-1.92,1.4-2.07,1.18-2.88,1.18-2.88C73.24,22.16,67.45,19,67.45,19a9.68,9.68,0,0,0-1.85,2.29,21.7,21.7,0,0,1-1.25,2.29c-2.58-2-6.57-5.1-6.57-5.1-1.11,1.63-2.51,4.28-2.51,4.28-.92,1.63,0,2,0,2l1.33,1a90.8,90.8,0,0,0-7.09,8.34c-.62-.85-3.76-4.58-3.76-4.58a8.16,8.16,0,0,1-2.58-3.83c-.45-2.37-1.11-2.37-1.11-2.37-1.22.15-1.55,4.65-1.55,4.65a4.48,4.48,0,0,0,.66,3.1,53.81,53.81,0,0,0,5.47,7.31c-3.7,4.32-6.57,11.37-6.57,11.37C38,55,39.4,56.81,39.4,56.81,41.84,59.65,47.89,57.11,47.89,57.11ZM42,49.58a80.47,80.47,0,0,1,5.83-10s5.49,4.57,6.34,8.7c0,0-.7,1.81-7.6,3.47,0,0-3.69.7-5.09-.73C41.47,51.06,41.36,51,42,49.58ZM96.53,78.14C94.76,76.41,90,74,90,74c-1.36.92-3.39,5.09-3.39,5.09,0,.78,3.76,2.51,3.76,2.51a9.61,9.61,0,0,1,2.88,2.14c1.59-.81,3.4-4.43,3.4-4.43,2.43.74,5.83,3.77,5.83,3.77a11.29,11.29,0,0,0,2.73-2.81A2.28,2.28,0,0,0,105,77c-1.18-.89-5.39-3.18-5.39-3.18C97.78,75,96.53,78.14,96.53,78.14Zm33.95-14.09c.33,9.52,7.6,10.55,7.6,10.55,4.47.41,10.85-3.32,10.85-3.32l8.93,1.55c9.15,2.32,11.22-5,11.22-5,3.25-8.74-3.69-12.32-3.69-12.32a62.61,62.61,0,0,1-7-4.36c-3.58-2.14-2.66-2.65-2.66-2.65,0-.7,1.7-.45,1.7-.45,1,.26,1.33-.14,1.33-.14.14-.74-1.18-1.48-1.18-1.48a79,79,0,0,0-7.75-3.69c-1,1.25-1.18,4.8-1.18,4.8a2,2,0,0,0,1.25,2.28c-3.43,1.7-7.23,9.45-7.23,9.45-2.88,5.61.37,9,.37,9-10.34,1.92-10-10.63-10-10.63.22-8.64-1.4-26.28-1.4-26.28-.74-23.17-5-30-5-30a20.25,20.25,0,0,0-2,5.54c3.91,10.18,4.5,31.07,4.5,31.07C129.67,44.19,130.48,64.05,130.48,64.05Zm27.09-6.43s10.77,5.76,10,8.71c0,0-1.66,1.59-7.67.67a36.85,36.85,0,0,0-4.5-.89S157.6,63.38,157.57,57.62ZM147,56.52s1.81-2.36,4-2.44c0,0,3.13.19,4.35,7.38,0,0-.51,1.33-4.43,3.77,0,0-5.72-.52-6.2-4.87A8.05,8.05,0,0,1,147,56.52Zm32.77-1.63a.79.79,0,0,1,.3-1.18c2.32,2.92,2.8,2.14,2.8,2.14.59-.59-2.21-5.16-2.21-5.16-1.59-2.48-3.69-6-3.69-6-.37-.89-.74-.67-.74-.67-1.59,1.55-2.73,5.24-2.73,5.24a1.37,1.37,0,0,0,.22.89l1.18,2.21c.11,3.84,4.28,11.89,4.28,11.89,1.74,4.24,1.55,6,1.55,6-.26.81-1.47,1.55-1.47,1.55-8.05,5.46-21.7,10.77-21.7,10.77a125,125,0,0,1-17.5,5.76A86.18,86.18,0,0,1,125.46,91c-4.39.51-4.43,1.4-4.43,1.4,0,.85,1,.51,1,.51a40.43,40.43,0,0,1,6,.08,94.21,94.21,0,0,0,14.76.15c9.37-1.85,23.4-8.71,23.4-8.71,10-3.69,14.69-8.86,14.69-8.86,3-3.88,2.65-10,2.65-10C183.51,62.68,179.78,54.89,179.78,54.89ZM112,36.15c.18,1.29,1.77,1.25,1.77,1.25a3.68,3.68,0,0,0,3-1.55A3,3,0,0,0,115.72,32c-1.11-.81-1.4-.37-1.4-.37a1.84,1.84,0,0,0-.74,1.33C111.88,34.82,112,36.15,112,36.15Zm1.84-2.73s.77-.08,1.7,1.4c0,0,.42.69-.66.88,0,0-1.23.25-1.63-.73C113.28,35,113.13,34.4,113.87,33.42Zm13.58,46.13s.59-5.06-2.51-6.13c0,0-.77-.67-6.79-1.7,0,0-6.6-.33-7.67-5.09,0,0-.56-1.77,3.39-6.27,0,0,3.47-5.32,7.68-5,0,0,1.7.07,1.84,1.33,0,0,.56,1.4,1.85-.3,0,0,2.36-4.54,0-6.34,0,0-3.14-2.85-9.15,2.73,0,0-5.61,5.72-7.38,12.54,0,0-2.4,7,.73,9.67,0,0,2.85,3,8.86,3.1,0,0,5.43.19,6.57,2.51,0,0-9.93,9.49-29.52,12.4,0,0-14.95,1.37-16.61-10.11a19.87,19.87,0,0,1,.52-10.41s.62-1.1,3.47-2.51c0,0,10.51-5.49,15.5-13.72,0,0,3.94-10.74-1.33-18.6,0,0-2.25-4.76-6.65-5.69,0,0-2.36-.37-5.38,3.62,0,0-3.69,4.06-2.88,8,0,0,1.14,5.12,7.31,4.64,0,0,6.82-1.4,7.08,4.36,0,0,.26,1.29-2.51,3.76a89.52,89.52,0,0,1-16.61,11s-19,10.85-35.42,15.72a8.85,8.85,0,0,0-1.48,1s-1,.74,10.85-.37c0,0,9.08-.26,14.1-3.69,0,0,8.41-4.32,12-6.79,0,0-2.75,4.38-1.91,12,1.4,12.77,13.06,13.51,13.06,13.51s12.29,1.62,28.64-8C117.05,90.76,128,85.41,127.45,79.55ZM90,42.13a7.25,7.25,0,0,1-4-1s-.67-.12-.08-.74c0,0,1.52-2.25,3.25-2,0,0,1.55.12,4.06,3.55A17.43,17.43,0,0,0,90,42.13Z" transform="translate(-9.2 -1.09)"/></g></svg>