<?xml version="1.0" encoding="utf-8"?>
<!-- Generator: Adobe Illustrator 28.3.0, SVG Export Plug-In . SVG Version: 6.00 Build 0)  -->
<svg version="1.1" id="Layer_1" xmlns="http://www.w3.org/2000/svg" xmlns:xlink="http://www.w3.org/1999/xlink" x="0px" y="0px"
	 viewBox="0 0 100 100" style="enable-background:new 0 0 100 100;" xml:space="preserve">
<style type="text/css">
	.st0{fill:#000;}
</style>
<g id="Shape_17">
	<g>
		<path class="st0" d="M45.3,80.6c0.3-3.6,4-8.4,5.7-9.6C70.8,77.6,84.5,47.5,98,41.4V28.2C98,13.1,85.7,0.8,70.6,0.8H29.4
			C14.3,0.8,2,13.2,2,28.2v43.5c0,15.1,12.4,27.4,27.4,27.4h41.2C85.7,99.2,98,86.8,98,71.7V48.3c-8.9,5.6-14.7,15.4-21.4,24.2
			c-11.4,14.9-30.1,26.4-47.7,14c-15-10.5-16-31.3-8.8-46.8C27.3,24.3,41.7,11.4,57,9.4C77.3,6.8,87.5,24,80.6,39
			C71.5,59,49,56.8,42.5,73.6C36.1,70,35,59.2,41,53.4c-6.5-5.2-3-15.2,2.3-16.8c-2,14.1,17.5,10.3,26.7,4.6
			c15.1-9.4-12-20.8-31.5-7.6c-9.1,6.2-18.6,21.5-7.1,29.8C30.4,71.8,38.4,79.7,45.3,80.6z"/>
	</g>
</g>
</svg>
