<svg version="1.2" xmlns="http://www.w3.org/2000/svg" viewBox="0 0 77 57" width="1351" height="1000">
	<style>
		.s0 { fill: #000000 } 
	</style>
	<path class="s0" d="m64.62 0.3h-52.8c-6.63 0-12 5.37-12 12v32.4c0 6.63 5.37 12 12 12h52.8c6.63 0 12-5.37 12-12v-32.4c0-6.63-5.37-12-12-12zm-52.08 3.12h51.36c2.08 0 3.99 0.67 5.56 1.79l-31.21 20.81-31.24-20.83c1.56-1.11 3.47-1.76 5.53-1.77zm-9.6 9.6c0-2.1 0.68-4.03 1.82-5.61q0.12 0.11 0.25 0.18l23.77 15.85-24.65 25.17c-0.76-1.37-1.19-2.95-1.19-4.62 0 0 0-30.96 0-30.97zm60.96 40.56h-51.36c-2.53 0-4.83-0.99-6.54-2.59l25.11-25.64q0.14-0.08 0.26-0.19l5.86 3.91c0.36 0.21 0.77 0.25 1.14 0.16q0.5 0.06 0.96-0.19l5.38-3.59 25.35 25.88c-1.67 1.4-3.82 2.24-6.16 2.24zm9.6-9.6c0 1.87-0.54 3.6-1.46 5.08l-24.78-25.3 24.29-16.19q0.09-0.05 0.16-0.12c1.13 1.57 1.8 3.49 1.8 5.58v30.96z"/>
</svg>