<?xml version="1.0" encoding="utf-8"?>
<!-- Generator: Adobe Illustrator 28.3.0, SVG Export Plug-In . SVG Version: 6.00 Build 0)  -->
<svg version="1.1" id="Layer_1" xmlns="http://www.w3.org/2000/svg" xmlns:xlink="http://www.w3.org/1999/xlink" x="0px" y="0px"
	 viewBox="0 0 100 100" style="enable-background:new 0 0 100 100;" xml:space="preserve">
<g id="Shape_12">
	<g>
		<path d="M80.6,0.5H20.4C9.6,0.5,0.9,9.2,0.9,19.9v60.2c0,10.7,8.7,19.4,19.4,19.4h60.2c10.7,0,19.4-8.7,19.4-19.4V19.9
			C100,9.2,91.3,0.5,80.6,0.5z M62,94.5h-25l-2.2-19.9h30.1L62,94.5z M66.6,69.6H33.1c-3.7,0-4.2,4.2-4.2,4.2l0.7,5.1
			c-4.9,0-8.1,0-8.1,0c-0.9,0-1.9-0.7-2.2-1.6l-3.6-10.3c-0.5-1.3,0.1-2.4,1.2-2.4h66c1.1,0,1.7,1.1,1.2,2.4l-3.6,10.3
			c-0.3,0.9-1.3,1.6-2.2,1.6c0,0-3.5,0-8.7,0l0.5-3.4C70.6,69,66.6,69.6,66.6,69.6z M27.3,59.4c1-8.1,9.1-8.4,9.1-8.4h25.1
			c7.9,0,10.1,5.6,10.7,8.4H27.3z M95,79c0,8.6-7,15.5-15.5,15.5H67l1.6-10.6c7,0,12,0,12,0c1.5,0,3.2-1.2,3.7-2.8l6.1-17.6
			c0.8-2.2-0.1-4.1-2-4.1h-0.1C87.1,47.2,79.9,41.8,76.6,40c0-2.8-2.3-5-5-5c-2.8,0-5,2.3-5,5.1c0,2.8,2.2,5.1,5,5.1
			c1,0,1.9-0.3,2.7-0.8c7,3.9,8.6,11.3,9,15.1h-5C77,46.3,62.4,45.1,62.4,45.1H38.1c-13.1,0-16,11.2-16.6,14.4H11.4
			c-1.9,0-2.8,1.9-2,4.1l6.1,17.6c0.5,1.5,2.2,2.8,3.7,2.8c0,0,4.5,0,11.1,0l1.5,10.6H21.5C12.9,94.5,6,87.6,6,79V21.1
			c0-8.6,7-15.5,15.5-15.5h57.9c8.6,0,15.5,7,15.5,15.5V79z"/>
	</g>
</g>
<g id="Shape_12_copy">
	<g>
		<path d="M50.2,13.5c-7.6,0-13.8,6.2-13.8,13.9c0,7.7,6.2,13.9,13.8,13.9c7.6,0,13.8-6.2,13.8-13.9C64.1,19.7,57.9,13.5,50.2,13.5z
			 M50.2,35.9c-4.7,0-8.5-3.8-8.5-8.5c0-4.7,3.8-8.5,8.5-8.5c4.7,0,8.5,3.8,8.5,8.5C58.7,32.1,54.9,35.9,50.2,35.9z"/>
	</g>
</g>
</svg>
