<?xml version="1.0" encoding="utf-8"?>
<!-- Generator: Adobe Illustrator 28.3.0, SVG Export Plug-In . SVG Version: 6.00 Build 0)  -->
<svg version="1.1" id="Layer_1" xmlns="http://www.w3.org/2000/svg" xmlns:xlink="http://www.w3.org/1999/xlink" x="0px" y="0px"
	 viewBox="0 0 100 100" style="enable-background:new 0 0 100 100;" xml:space="preserve">
<style type="text/css">
	.st0{fill:#000;}
</style>
<g id="Shape_1_00000063627585736649820510000001215791341731211708_">
	<g>
		<path class="st0" d="M78,78H65.6l0-12.5H46.9v18.7h8.5L45.2,94.5l4.4,4.4l14.6-14.6h20V65.6H78V78z M59.3,78h-6.2v-6.2h6.2V78z
			 M72,67.7l-4.4,4.4l4.4,4.4l4.4-4.4L72,67.7z M37.5,81.7l-2.6,2.6l4.4,4.4l4.5-4.4V65.6h-6.2V81.7z M15.7,55.4L5.5,45.2l-4.4,4.4
			l14.6,14.6v20h18.7V78H22V65.6h12.5V46.9H15.7V55.4z M22,53.1h6.2v6.2H22V53.1z M27.9,76.4l4.4-4.4l-4.4-4.4L23.5,72L27.9,76.4z
			 M15.7,34.9l-4.4,4.4l4.4,4.5h18.7v-6.2H18.3L15.7,34.9z M53.1,34.4V15.7h-8.5L54.8,5.5l-4.4-4.4L35.8,15.7h-19l-1,0l0,1v17.7H22
			V22h12.5v12.5H53.1z M40.7,22h6.2v6.2h-6.2V22z M28,23.5l-4.4,4.4l4.4,4.4l4.4-4.4L28,23.5z M62.5,18.3l2.6-2.6l-4.4-4.4l-4.5,4.4
			v18.7h6.2V18.3z M84.3,35.8v-20H65.6V22H78v12.5H65.6v18.7h18.7v-8.5l10.2,10.2l4.4-4.4L84.3,35.8z M78,46.9h-6.2v-6.2H78V46.9z
			 M72.1,23.6L67.7,28l4.4,4.4l4.4-4.4L72.1,23.6z M65.6,56.2v6.2h16.1l2.6,2.6l4.4-4.4l-4.4-4.5H65.6z"/>
	</g>
</g>
</svg>
