<?xml version="1.0" encoding="utf-8"?>
<!-- Generator: Adobe Illustrator 25.2.3, SVG Export Plug-In . SVG Version: 6.00 Build 0)  -->
<svg version="1.1" id="Layer_1" xmlns="http://www.w3.org/2000/svg" xmlns:xlink="http://www.w3.org/1999/xlink" x="0px" y="0px"
	 viewBox="0 0 98.8 83.4" style="enable-background:new 0 0 98.8 83.4;" xml:space="preserve">
<style type="text/css">
	.st0{fill-rule:evenodd;clip-rule:evenodd;fill:#000;}
	.st1{fill-rule:evenodd;clip-rule:evenodd;fill:#000;}
</style>
<g id="Ellipse_8_copy_9">
	<path class="st0" d="M92.3,79.2l-27.9-7.4c5.2-2.7,9.6-6.7,12.7-11.6l-3.4-2.9c-4.3,7-11.4,11.8-19.5,13.3l1.1,4.3
		c0.8-0.2,1.6-0.3,2.4-0.6h0.1l33.4,8.8c1.1,0.3,2.3-0.4,2.6-1.5S93.4,79.5,92.3,79.2L92.3,79.2L92.3,79.2z M24,57.3l-3.6,2.6
		c3.2,5,7.6,9.1,12.8,11.8L5.2,79.2c-1.1,0.3-1.8,1.5-1.5,2.6C4,83,5.1,83.6,6.3,83.3l0,0l33.4-8.8c0.1,0,0.2-0.1,0.3-0.1
		c0.7,0.2,1.4,0.4,2.1,0.5l1-4.3C35.1,69,28.3,64.2,24,57.3z M75.2,29.4l3.8-2.2C70.8,10.5,50.6,3.7,33.9,12
		c-6.6,3.3-11.9,8.6-15.2,15.2l3.7,2.4C29.4,15,46.9,8.7,61.4,15.7C67.4,18.5,72.3,23.3,75.2,29.4L75.2,29.4z"/>
</g>
<g id="Ellipse_8_copy">
	<path class="st1" d="M98.8,39.1c-0.2-7.3-5.2-13.4-11.8-14.4C77.6,3.7,52.9-5.8,31.9,3.6c-9.5,4.2-17,11.8-21.2,21.3
		C4.7,26.5,0.2,32.2,0,39.1l0,0v10.7l0,0c0.2,8.1,6.4,14.6,13.9,14.6l0,0c7.6,11.8,20.7,18.9,34.8,19h0.2c4.9,0,8.8-4.1,8.8-8.9
		c0-4.9-4.1-8.8-8.9-8.8c-4.9,0-8.8,4.1-8.8,8.9c0,1.4,0.3,2.7,0.9,3.9c-9.1-2-17.2-7.3-22.6-14.9c5.7-2.2,9.5-7.7,9.5-13.9l0,0
		V39.1l0,0c-0.2-7.6-5.6-13.8-12.5-14.5C24.8,6,47.5-1.3,66,8.1c7.1,3.6,12.9,9.5,16.6,16.6c-6.5,1.2-11.4,7.1-11.6,14.4l0,0v10.7
		l0,0c0.2,8.1,6.3,14.6,13.9,14.6s13.7-6.5,13.9-14.6l0,0V39.1z M48.8,69.8c2.6,0,4.8,2.1,4.8,4.8s-2.1,4.8-4.8,4.8S44,77.2,44,74.6
		c0,0,0,0,0,0C44,71.9,46.1,69.8,48.8,69.8L48.8,69.8z M23.8,40.2v8.6c0,5.9-4.1,11.4-9.8,11.4s-9.9-5.5-9.9-11.4v-8.6
		c0-5.9,4.1-11.4,9.8-11.4S23.7,34.3,23.8,40.2L23.8,40.2z M94.8,48.8c0,5.9-4.1,11.4-9.8,11.4s-9.9-5.5-9.9-11.4v-8.6
		c0-5.9,4.1-11.4,9.8-11.4s9.8,5.5,9.8,11.4L94.8,48.8z"/>
</g>
</svg>
