<?xml version="1.0" encoding="utf-8"?>
<!-- Generator: Adobe Illustrator 28.3.0, SVG Export Plug-In . SVG Version: 6.00 Build 0)  -->
<svg version="1.1" id="Layer_1" xmlns="http://www.w3.org/2000/svg" xmlns:xlink="http://www.w3.org/1999/xlink" x="0px" y="0px"
	 viewBox="0 0 100 100" style="enable-background:new 0 0 100 100;" xml:space="preserve">
<style type="text/css">
	.st0{fill:#000;}
</style>
<g id="Shape_1">
	<g>
		<path class="st0" d="M93.3,9.6l-88.3,34c-2.2,0.8-2.2,3.9,0,4.7l21.5,8l8.3,26.7c0.5,1.7,2.6,2.3,4,1.2l12-9.8
			c1.3-1,3-1.1,4.4-0.1l21.6,15.7c1.5,1.1,3.6,0.3,4-1.5l15.9-76.1C97.1,10.5,95.1,8.9,93.3,9.6z M76.4,27.4L41.7,59.6
			c-1.2,1.1-2,2.7-2.2,4.3l-1.2,8.7c-0.2,1.2-1.8,1.3-2.1,0.2l-4.5-16c-0.5-1.8,0.2-3.8,1.9-4.8l42.1-25.9
			C76.3,25.8,77.1,26.8,76.4,27.4z"/>
	</g>
</g>
</svg>
