<?xml version="1.0" encoding="utf-8"?>
<!-- Generator: Adobe Illustrator 28.3.0, SVG Export Plug-In . SVG Version: 6.00 Build 0)  -->
<svg version="1.1" id="Layer_1" xmlns="http://www.w3.org/2000/svg" xmlns:xlink="http://www.w3.org/1999/xlink" x="0px" y="0px"
	 viewBox="0 0 100 100" style="enable-background:new 0 0 100 100;" xml:space="preserve">
<style type="text/css">
	.st0{fill:#2E3E36;}
	.st1{fill:#719485;}
</style>
<g id="Rectangle_1">
	<g>
		<path class="st0" d="M42.9,67.6H18.2c-1.3,0-2.4,1.1-2.4,2.4c0,1.3,1.1,2.4,2.4,2.4h24.7c1.3,0,2.4-1.1,2.4-2.4
			C45.2,68.7,44.2,67.6,42.9,67.6z M18.2,34.3h24.7c1.3,0,2.4-1.1,2.4-2.4c0-1.3-1.1-2.4-2.4-2.4H18.2c-1.3,0-2.4,1.1-2.4,2.4
			C15.9,33.2,16.9,34.3,18.2,34.3z M42.9,54.9H18.2c-1.3,0-2.4,1.1-2.4,2.4s1.1,2.4,2.4,2.4h24.7c1.3,0,2.4-1.1,2.4-2.4
			S44.2,54.9,42.9,54.9z M69.8,75.6h2.7l3.3-5.4h-9L69.8,75.6z M42.9,42.2H18.2c-1.3,0-2.4,1.1-2.4,2.4c0,1.3,1.1,2.4,2.4,2.4h24.7
			c1.3,0,2.4-1.1,2.4-2.4C45.2,43.3,44.2,42.2,42.9,42.2z M81.5,1.3h-62c-10,0-18.1,8.1-18.1,18.1v61.3c0,10,8.1,18.1,18.1,18.1h62
			c10,0,18.1-8.1,18.1-18.1V19.4C99.6,9.4,91.5,1.3,81.5,1.3z M94.9,79.6c0,8-6.5,14.5-14.5,14.5H20.6c-8,0-14.5-6.5-14.5-14.5V20.5
			c0-8,6.5-14.5,14.5-14.5h59.8c8,0,14.5,6.5,14.5,14.5V79.6z"/>
	</g>
</g>
<g id="Ellipse_9">
	<g>
		<path class="st1" d="M71,26.3c1,0,1.8-0.8,1.8-1.8c0-1-0.8-1.8-1.8-1.8c-1,0-1.8,0.8-1.8,1.8C69.2,25.5,70,26.3,71,26.3z
			 M83.8,80.3H72.1l11.1-17.2l0.1-37.8c0-0.3,0.1-0.5,0.1-0.8l-0.1,0c-0.5-6.3-5.7-11.2-12-11.2c-6.1,0-11.1,4.1-12,10.1l-0.2,0
			c0,0.4,0,0.9,0.1,1.3c0,0.1,0,0.1,0,0.2c0,0.3,0,0.3,0,0.3v37.4h0l11.2,17.9h-52c-1.3,0-2.4,1.1-2.4,2.4c0,1.3,1.1,2.4,2.4,2.4
			h65.6c1.3,0,2.4-1.1,2.4-2.4C86.2,81.4,85.1,80.3,83.8,80.3z M71.1,16.8c4.1,0,7.5,2.9,8.3,6.8c-0.1,4.6-3.9,8.2-8.4,8.2
			c-4.5,0-8.1-3.6-8.3-8C63.5,19.8,67,16.8,71.1,16.8z M62.6,61.8V32.1c1.7,1.7,4,2.9,6.5,3.4v20.2c0,1,0.8,1.8,1.8,1.8
			c1,0,1.8-0.8,1.8-1.8V35.5c2.7-0.3,5.1-1.5,6.9-3.2v29.4l-8.5,13.7L62.6,61.8z"/>
	</g>
</g>
</svg>
