<svg id="Layer_1" data-name="Layer 1" xmlns="http://www.w3.org/2000/svg" width="100" height="100" viewBox="0 0 100 100"><defs><style>.cls-1{fill:#40ba8e;}.cls-2{fill:#2e3e36;fill-rule:evenodd;}</style></defs><g id="Rounded_Rectangle_3_copy_3" data-name="Rounded Rectangle 3 copy 3"><path class="cls-1" d="M50.11,27.18a2.48,2.48,0,0,0-2.48,2.48V81.13a2.48,2.48,0,1,0,4.95,0V29.66A2.48,2.48,0,0,0,50.11,27.18ZM36,27.18a2.48,2.48,0,0,0-2.48,2.48l.76,51.47a2.48,2.48,0,0,0,5,0l-.76-51.47A2.48,2.48,0,0,0,36,27.18Zm28.21,0a2.48,2.48,0,0,0-2.48,2.48L61,81.13a2.48,2.48,0,1,0,5,0l.76-51.47A2.48,2.48,0,0,0,64.21,27.18Z"/></g><g id="Rounded_Rectangle_1_copy_73" data-name="Rounded Rectangle 1 copy 73"><path class="cls-2" d="M70.88,13.46v-1.8a10.48,10.48,0,0,0-10.1-10.4H39.08a1,1,0,0,0-.24,0,10.49,10.49,0,0,0-9.51,10.44h0v1.72H16.75l1.9,66.33A19.07,19.07,0,0,0,37.72,98.86H62.5A19.07,19.07,0,0,0,81.56,79.79l1.52-66.33Zm-36.21-2.1a5.14,5.14,0,0,1,5.14-5.14H60.59v.11a5.1,5.1,0,0,1,5,4.57v2.57H34.66v-2.1ZM76.6,78.65A15.25,15.25,0,0,1,61.35,93.9H38.86A15.25,15.25,0,0,1,23.61,78.65L21.7,18.41H78.13Z"/></g></svg>