<svg id="Layer_1" data-name="Layer 1" xmlns="http://www.w3.org/2000/svg" viewBox="0 0 313.37 94.1"><defs><style>.cls-1{fill:#2e3e36;fill-rule:evenodd;}</style></defs><g id="Shape_9" data-name="Shape 9"><path class="cls-1" d="M297.12,6.13c1.83-1.55,0-1.32,0-1.32-7.06,2.87-22.18,10.09-22.18,10.09a1.82,1.82,0,0,0-.78,1.93C277.15,14.9,297.12,6.13,297.12,6.13ZM119.49,26a1.34,1.34,0,0,0,.16-1.71c-7.07,2.85-25.18,12.19-25.18,12.19a1.84,1.84,0,0,0-.78,1.93C96.69,36.43,119.49,26,119.49,26Zm-70.62-.43c2.87,4.81,12.57,16.14,12.57,16.14a146.42,146.42,0,0,1,9.7,12.26c5.62,7.44,7.14,12.33,7.14,12.33A13.62,13.62,0,0,1,79,73.08c-.69,2.91.31,3.1.31,3.1,1,.16,1.32-1.47,1.32-1.47,5.15-15.8-19.31-39.88-19.31-39.88-1.59-2.13-5.36-6.28-5.36-6.28-.58-.7-1.47-2.1-1.47-2.1l-.7-.85a3.86,3.86,0,0,1,2.1.93c1.16,1.2,1.24.62,1.24.62.5-.93-1.86-3-1.86-3-2.72-3.38-4.12-5.05-4.12-5.05a25.93,25.93,0,0,1-3.8-4.26c-.58-1.2-1.08,0-1.08,0a37.55,37.55,0,0,0-.7,3.95A6,6,0,0,0,46.7,22,31.26,31.26,0,0,1,48.87,25.52Zm-16,10c1.41.71,5.84,3.56,5.84,3.56,2,1.32,2.26-.3,2.26-.3l1.44-3c1-1.78-.3-2.42-.3-2.42l-6-3.57c-.75-.84-1.23-.28-1.23-.28a22.13,22.13,0,0,0-2.76,4.94C31.86,35.08,32.85,35.51,32.85,35.51ZM293.48,24c-1.63,1.59-3.18,5.43-3.18,5.43a1.42,1.42,0,0,0,.85.62l4.73,3c1.63,1.32,2.87-.54,2.87-.54a16,16,0,0,1,2.33-3.34,25,25,0,0,1,4.5,2.79,4.66,4.66,0,0,0,1.94,1.24,13.52,13.52,0,0,0,2.87-3.8c.89-1.63-.08-2-.08-2a70.68,70.68,0,0,0-6.2-3.81l-3.57,4.89Zm.93-9.63a21.7,21.7,0,0,0-2.87,4.88c-.28.6.71,1.05.71,1.05C293.64,21,298,24,298,24c2,1.36,2.27-.25,2.27-.25l1.5-2.94c1.09-1.76-.23-2.42-.23-2.42l-5.91-3.72C294.91,13.79,294.41,14.34,294.41,14.34ZM210.93,4.66A1.33,1.33,0,0,0,211.09,3C204,5.82,186,15.21,186,15.21a1.84,1.84,0,0,0-.77,1.94C188.17,15.21,210.93,4.66,210.93,4.66Zm-7.75,7.6c-.78-.82-1.24-.23-1.24-.23a21.8,21.8,0,0,0-2.56,5c-.24.62.77,1,.77,1,1.44.66,6,3.33,6,3.33,2.06,1.24,2.25-.39,2.25-.39l1.32-3c1-1.82-.38-2.41-.38-2.41Zm-101.09,44a27,27,0,0,1,3,.08c6,.27,9.85-6.44,9.85-6.44,3.34-5.66,1-5.89,1-5.89-5-1.13-12,.31-12,.31-1.43.23-1.62,1.08-1.62,1.08a19.65,19.65,0,0,1-2.1,4.19c-.54,1.17.7.78.7.78a37.54,37.54,0,0,1,11.25-.62C110,51.51,101.47,56,101.47,56,101.36,56.24,102.09,56.24,102.09,56.24Zm212.52,18c-.38-.37-.54-.07-.54-.07-.07.16-.52,1-.52,1-.27.44.45,1.14.45,1.14.28.21.19.27.19.27a2.78,2.78,0,0,1-.92.35c-1.3-.17-1.17-.88-1.17-.88.34-.92-.13-1-.13-1-.5,0-1.21,1.59-1.21,1.59a2,2,0,0,1-1.35,1.54,2,2,0,0,1-1.9-.71c-2.76-3-7.39,1.7-7.39,1.7a22.53,22.53,0,0,1-3.79,2.85c-2.8,2.18-9.95,3.78-9.95,3.78-.93.31.16.65.16.65,7.1.69,14.52-6.44,14.52-6.44,3.51-3.16,5.62-1,5.62-1a1.94,1.94,0,0,0,1.91.85c2.11-.44,2.21-1.88,2.21-1.88.32-.79.52-.07.52-.07.18.77,1.45.77,1.45.77,3-.51,2.77-2.7,2.77-2.7C315.61,75.32,314.61,74.24,314.61,74.24Zm-118-21.72c-3.33-1.59-13.81-.08-13.81-.08-13.49,1.36-17.53.08-17.53.08a34.71,34.71,0,0,1,6.13-5.82L172.46,49c.66,2.06,1.55,1.63,1.55,1.63,1.86-1.79.7-6.83.7-6.83a115.52,115.52,0,0,1,18-10,33,33,0,0,0-1.32,9.39c-.23,7.06,5.12,8.92,5.12,8.92,5.86,2.56,12.18.39,12.18.39,3.77,2.29,9.47,2.17,9.47,2.17,9.58-.54,10.71-7.21,10.71-7.21a13.14,13.14,0,0,0,.69-8.61,6.49,6.49,0,0,0-2.32-2.33,44.72,44.72,0,0,1-3.65-2.64,22.37,22.37,0,0,1-2.72-3.18c-1.59-2.64-1.93-7.45-1.93-7.45,1.26.26,1.55-.07,1.55-.07a3.4,3.4,0,0,0-.31-2.56c-1-1.17-2.56-3.18-2.56-3.18-.57-1.3-.93-1.4-.93-1.4-1.48.54-2.88,5.66-2.88,5.66,0,.62.78,1.17.78,1.17.31,1.51.78,3.1.78,3.1l.93,4.65C208.65,33.94,205.35,42,205.35,42c-1.9,3.76-.85,5.82-.85,5.82-4.43-.58-5.59-1.32-5.59-1.32A9.48,9.48,0,0,1,194,40.81c-.7-1.94.39-7.68.39-7.68a9.5,9.5,0,0,0,2-1,2.87,2.87,0,0,0,1.16-.86l.78-3.49c.66-2.05.15-2.71.15-2.71-.35-.35-2.33-.16-2.33-.16-5.35-.42-20.63-1.39-20.63-1.39A55.73,55.73,0,0,0,165,23c-7.49.2-8.69,1.71-8.69,1.71-2.56,2.44-1.86,7.6-1.86,7.6,1.24,3.53,6.82,6.75,6.82,6.75,5.67,2.64,7.3,4.42,7.3,4.42a30.33,30.33,0,0,0-7.22,8.46c-8.3-1.09-7.37-3.34-7.37-3.34-.73-1.78-1.24.08-1.24.08.08,5.74,6.13,8.15,6.13,8.15a44.78,44.78,0,0,0-4.27,19.31c.16,15,11.17,18.39,11.17,18.39C184.79,101,197.51,84,197.51,84c11.1-14.35,7.61-23,7.61-23A11.79,11.79,0,0,0,196.58,52.52Zm24.83-12a18.28,18.28,0,0,0,3,2.09c2.83,1.79,2.8,3.65,2.8,3.65-3.46,3.6-10.48,1.78-10.48,1.78A20.12,20.12,0,0,0,221.41,40.5Zm-12.8.07s4.65-4.65,7.83-5.35c0,0,3.49,2.64,1.24,7.6a16.71,16.71,0,0,1-6.51,3.34A7.63,7.63,0,0,1,208,43.37,2.45,2.45,0,0,1,208.61,40.57Zm-44.84-7.13c-3.88-2.25-4.81-3.65-4.81-3.65.46-.58,6.36-.54,6.36-.54l22.5,1.24c-10.28,4.81-15.13,9.31-15.13,9.31C171.56,37.9,163.77,33.44,163.77,33.44ZM201.7,71.53a31.19,31.19,0,0,1-12.56,15,24.16,24.16,0,0,1-16.76,3A17.57,17.57,0,0,1,159,79.21a22.23,22.23,0,0,1-1.4-10.94,21.66,21.66,0,0,1,3.57-10.63s4.34,2.41,15.36,1.47a89.26,89.26,0,0,0,11.71-.77s7.84-.7,12.34,2.95C200.54,61.29,205,64.86,201.7,71.53ZM216,70.36c.19,1.36,1.86,1.32,1.86,1.32A3.86,3.86,0,0,0,221,70.05a3.15,3.15,0,0,0-1.16-4c-1.17-.85-1.48-.39-1.48-.39a1.94,1.94,0,0,0-.77,1.4C215.82,69,216,70.36,216,70.36Zm1.94-2.87s.8-.07,1.78,1.48c0,0,.44.72-.7.93,0,0-1.29.26-1.7-.78C217.3,69.12,217.14,68.53,217.92,67.49ZM65.71,61.75s-.51-.23-1.17.55L57.8,67s-10.28,6.83-15.75,5.51c0,0-5-1.55-8.07-10.16,0,0-1.75-4.93-.7-8.46,0,0,.93-1.13,4.89-2,0,0,13.07-3.53,20.25-.15,0,0-8.07-10.09-21.88-4.66,0,0-8.85,4-7.76,15.52,0,0,.66,7.83,4.89,11.64,0,0-7,.11-9.93-9.39a114.15,114.15,0,0,1-1.4-12.72S22.81,40.5,18.08,35a11.3,11.3,0,0,1-1.4,3.57s-1.59,2.56-.62,4.42c0,0,1.47,3.49,1.47,4.65L9.7,55.55A19.27,19.27,0,0,0,4,65.55s-.35,1.87-.62,3c0,0-1.24,5.63,5.2,4.27,0,0,9.27-2.56,11.17-9.54,0,0,.27-.2.23.38,0,0,.24,6.83,3.26,11.49,0,0,3.53,5.47,9.31,5.58,0,0,6,1.13,15.67-3.41,0,0,7.88-3.49,13.11-7.76C61.36,69.51,66.13,66.91,65.71,61.75Zm-47.32-.46C15,65.67,8.15,66.72,8.15,66.72c-2.25-.2-2.41-1.09-2.41-1.09,0-1,3.18-4.58,3.18-4.58,1.59-2.48,8.38-9.23,8.38-9.23a4.62,4.62,0,0,1,.62-.77C19,54.38,18.39,61.29,18.39,61.29ZM315.51,38.4c-1-.08-2.33,4.42-2.33,4.42-.62,1.21.08,1.71.08,1.71a3.4,3.4,0,0,1,.54,2.41c-2.52.58-3.72-.16-3.72-.16-2.44-1-2.41-2.72-2.41-2.72,2-3.37.86-4,.86-4-1.48-.12-4,4.81-4,4.81-1.51,3.38-6.67,4.34-6.67,4.34-4.81.43-6.52-2.87-6.52-2.87-1.35-1.43-.46-4-.46-4l.7-1.71c.69-2.71-1-2.4-1-2.4-6.56-.35-13.66,3.72-13.66,3.72-1.86,1.09-3.1,6-3.1,6a8.69,8.69,0,0,0,0,4.15,35,35,0,0,0-7.43.2s-5,.93-20.09-.47a31.86,31.86,0,0,1,5-5.2,13.2,13.2,0,0,1,2.56,3s.78,1.21,1.4,1.09c0,0,1.59-.74-.39-6.91,0,0,6.21-5,21.34-12.25l1.31-.78s1.21-.19,1.4-2.4c0,0,.7-3.38.16-4,0,0-.28-.39-2.18-.54a223.51,223.51,0,0,0-24.12-.93s-5-.12-8.54-.24c0,0-9.89-1.51-10,7.68,0,0-.63,7.33,8.3,11.56A58.16,58.16,0,0,1,248,44.45a49.48,49.48,0,0,0-4.89,6.6,20.87,20.87,0,0,1-7.53-3.42s-.82-.59-1.24-.23c0,0-.26.52.62,1.4,0,0,1.5,3,6,6.05a41.47,41.47,0,0,0-3.73,24.75s0,.08.05.25C226.2,83.17,211,86,211,86c-3.67.57-3.57,1.32-3.57,1.32.06.51,1.32.54,1.32.54a68.49,68.49,0,0,0,22.66-1,72.94,72.94,0,0,0,7.65-2A18.51,18.51,0,0,0,254.3,95.73s16.06,1.79,28-13.57c0,0,9.38-10.17,4.65-23,0,0-.33-5-9-6.5a29.19,29.19,0,0,0-1.43-5.44c7.79-3.49,11.79-3,11.79-3-.85,1.59-.47,5.2-.47,5.2,1.13,5.12,4.74,5.82,4.74,5.82a12.05,12.05,0,0,0,11.87-5.59c.66-1.28.93-1.09.93-1.09,1,5.32,4.73,5,4.73,5,6.05.23,6.52-8.38,6.52-8.38C317.06,40.22,315.51,38.4,315.51,38.4Zm-69.9-1.86c-7-3.06-8.53-6.28-8.53-6.28,2.79-2.18,18.54-1,18.54-1,6,.27,13,.31,13,.31-11.13,5.82-16.29,11-16.29,11A39.2,39.2,0,0,0,245.61,36.54Zm-4.25,42c-1.89-4.18-3.65-12,1.69-22.52a76.59,76.59,0,0,0,29.4,2.48,17,17,0,0,1,3.27.17,6.75,6.75,0,0,1,.23,2.7c-.59,1.32-4.58,4-4.58,4-6.75,5-27.31,12.18-27.31,12.18C243.24,77.85,242.33,78.19,241.36,78.53Zm36.21-16.31a17,17,0,0,0,.6-3,14.38,14.38,0,0,1,6.15,3.43s4.19,5.19-1,13c0,0-5.89,9.62-17.22,12.8,0,0-13,5-21.76-5.24a216.24,216.24,0,0,0,23.39-10.2C277.5,67.65,277.57,62.22,277.57,62.22Zm-95,9.31-6.13-3.34c-.77-.81-1.24-.23-1.24-.23a22,22,0,0,0-2.56,5c-.23.62.78,1,.78,1,1.43.66,6,3.34,6,3.34,2.06,1.24,2.25-.39,2.25-.39l1.32-3C183.9,72.11,182.54,71.53,182.54,71.53ZM106.59,90.77l-6.13-3.34c-.77-.81-1.24-.23-1.24-.23a21.8,21.8,0,0,0-2.56,5c-.23.62.78,1,.78,1,1.43.66,6,3.34,6,3.34,2.06,1.24,2.25-.39,2.25-.39l1.32-3C108,91.35,106.59,90.77,106.59,90.77Zm22-55.94c-.39-3.29-.78-8.53-.78-8.53.08-1.44.47-.62.47-.62,1.08,2.52,1.78,2,1.78,2,.54-.39.16-1.4.16-1.4-2-6-3.81-13.11-3.81-13.11-.38-1.75-1.24-.85-1.24-.85-1.39,1.16-2.79,5.66-2.79,5.66,1.51.7,1.63,9.77,1.63,9.77,0,5.51,1.78,19.79,1.78,19.79,2.56,20.55,2.56,26.29,2.56,26.29,0,1.75-1,2.1-1,2.1-4.43,2.71-7.76,1.94-7.76,1.94-4.73-.47-4.81-5.28-4.81-5.28a2.06,2.06,0,0,1,.08-1.47c.69-1.75-.32-2.1-.32-2.1-.58-.27-1.31.63-1.31.63-.59.62-3,3.41-3,3.41-5.55,6.32-10.94,5-10.94,5-7.45-1.24-8-10.08-8-10.08-.32-3.74-1.4-15.67-1.4-15.67-.2-11-2.4-30.18-2.4-30.18C86.89,19.43,86.42,14,86.42,14c-.19-3.37-.93-3.8-.93-3.8a.81.81,0,0,0-.93.7l-.93,3.33a22,22,0,0,0-.47,5.59c0,3,.93,11.09.93,11.09,1.56,11.33,1.71,33.83,1.71,33.83.35,7.91-3.57,12.33-3.57,12.33a49,49,0,0,1-9.46,8.69c-3.34,2.33-12,5.82-12,5.82a11.89,11.89,0,0,0-2.17,1c-.89.66-.23,1.32-.23,1.32.08-.39.62-.55.62-.55,9-.65,13.5-2.71,13.5-2.71C85.88,85,87.9,68.19,87.9,68.19c.15-1.78.38-1.47.38-1.47a31.86,31.86,0,0,0,1,8.3c1.75,8.11,7.37,9.31,7.37,9.31,8.42,2.48,15.44-8.23,15.44-8.23.58-.73.78-.54.78-.54-1.44,8.54,5.12,9,5.12,9,12.1.16,12.41-9.08,12.41-9.08,2.25-5.66.54-18.54.54-18.54C129.94,47.48,128.55,34.83,128.55,34.83Zm17,3.8-1.4-11.94c.7-1.52.85-.16.85-.16,1.21,2.83,2,2.56,2,2.56.66-.31.23-2.09.23-2.09-1.74-5.28-4-13.19-4-13.19,0-2.06-1.16-.93-1.16-.93a15.65,15.65,0,0,0-2.56,5.66.87.87,0,0,0,.15,1c1.24,2.95,1.16,10.63,1.16,10.63.31,4.23,1.4,15,1.4,15l1.16,14.12c.28,4,1.17,12.8,1.17,12.8a32.56,32.56,0,0,1-.31,10.4c-.7,2.35-.08,2.32-.08,2.32.49.16,1.09-.46,1.09-.46,4.65-7.14,2.09-25.29,2.09-25.29Z" transform="translate(-3.32 -2.95)"/></g></svg>