<?xml version="1.0" encoding="utf-8"?>
<!-- Generator: Adobe Illustrator 28.3.0, SVG Export Plug-In . SVG Version: 6.00 Build 0)  -->
<svg version="1.1" id="Layer_1" xmlns="http://www.w3.org/2000/svg" xmlns:xlink="http://www.w3.org/1999/xlink" x="0px" y="0px"
	 viewBox="0 0 100 100" style="enable-background:new 0 0 100 100;" xml:space="preserve">
<style type="text/css">
	.st0{enable-background:new    ;}
	.st1{fill:#2e3e36;}
	.st2{fill:#bccac4;}
</style>
<g id="Rounded_Rectangle_1_copy_96" class="st0">
	<g id="Rounded_Rectangle_1_copy_96-2">
		<path class="st1" d="M98.2,40.2V12.9c0-1.5-0.6-2.7-1.9-3.3C95.7,9.2,95.1,9,94.3,9H60.2H40.8H6.7C5.2,9,4,9.6,3.4,10.8
			c-0.4,0.6-0.6,1.5-0.6,2.3v35.2c0,2.1,1.7,3.7,3.7,3.7s3.7-1.7,3.7-3.7V16.6h30.6h19.4h30.6v23.7v19.6v23.7H58.1
			c-2.1,0-3.7,1.7-3.7,3.7c0,2.1,1.7,3.7,3.7,3.7h36.2c0.8,0,1.5,0,2.1-0.6c1-0.6,1.9-1.9,1.9-3.3V59.9V40.4V40.2z"/>
	</g>
</g>
<g id="Rounded_Rectangle_1_copy_97" class="st0">
	<g id="Rounded_Rectangle_1_copy_97-2">
		<path class="st2" d="M49.3,58.1c-0.6-1-1.9-1.9-3.3-1.9H7.1c-0.2,0-0.4,0-0.6,0c-2.1,0-3.7,1.7-3.7,3.7v27c0,0.8,0,1.7,0.6,2.3
			c0.6,1,1.9,1.9,3.3,1.9h38.9c0.2,0,0.4,0,0.6,0c2.1,0,3.7-1.7,3.7-3.7v-27C50,59.5,50,58.7,49.3,58.1z M42.5,83.4H10.2V63.9h32.3
			V83.4z"/>
	</g>
</g>
<g id="Rounded_Rectangle_1_copy_52-3" class="st0">
	<g id="Rounded_Rectangle_1_copy_52-4">
		<path class="st1" d="M82,26.6c-1.2-1.2-3.3-1.2-4.6,0L61.8,42.2l0.4-11.4c0-1.7-1.5-3.1-3.1-3.1c-1.7,0-3.1,1.5-3.1,3.1l-0.4,18.9
			c0,0.6,0.2,1.2,0.6,1.9c0.6,1,1.7,1.7,2.7,1.7h19.4c1.7,0,3.1-1.5,3.1-3.3l0,0c0-1.9-1.5-3.1-3.1-3.1H66.4L82,31.2
			C83.3,30,83.3,27.9,82,26.6L82,26.6z"/>
	</g>
</g>
</svg>
