<svg id="Layer_1" data-name="Layer 1" xmlns="http://www.w3.org/2000/svg" width="100" height="100" viewBox="0 0 100 100"><defs><style>.cls-1{fill:#2e3e36;fill-rule:evenodd;}.cls-2{fill:#719485;}</style></defs><g id="Ellipse_8_copy_5" data-name="Ellipse 8 copy 5"><path class="cls-1" d="M49.91,1a49,49,0,1,0,49,49A49,49,0,0,0,49.91,1Zm0,92.92a43.91,43.91,0,1,1,43.91-43.9A43.9,43.9,0,0,1,49.91,94Z"/></g><g id="Shape_21_copy" data-name="Shape 21 copy"><path class="cls-2" d="M65.87,46.4,41.65,32.18c-5.32-2.06-6.15,3.08-6.15,3.08V64.09c1,5.35,6.15,3.07,6.15,3.07L65.49,53.32C70.11,49.62,65.87,46.4,65.87,46.4ZM40.11,62.55V37.18L62,49.48Z"/></g></svg>