<?xml version="1.0" encoding="utf-8"?>
<!-- Generator: Adobe Illustrator 28.3.0, SVG Export Plug-In . SVG Version: 6.00 Build 0)  -->
<svg version="1.1" id="Layer_1" xmlns="http://www.w3.org/2000/svg" xmlns:xlink="http://www.w3.org/1999/xlink" x="0px" y="0px"
	 viewBox="0 0 255.9 32.5" style="enable-background:new 0 0 255.9 32.5;" xml:space="preserve">
<style type="text/css">
	.st0{fill:#CEAD56;}
	.st1{fill:#FFFFFF;}
	.st2{fill:#232262;}
</style>
<g>
	<g id="Rectangle_1_copy_116_00000060732751091713832840000011035902187843733136_">
		<g>
			<path class="st0" d="M6.8,10.3L6.8,10.3l-1.7,0H3.5H1.7v0c-0.9,0-1.5,0.7-1.6,1.6h0v9.8h1.6v-9.8h1.6v9.8h1.6v-9.8h1.6v9.8h1.6
				v-9.8h0C8.3,11,7.7,10.3,6.8,10.3z M29.8,13.6L29.8,13.6l-1.7,0v-3.3h-1.6v11.4H28h0.1h1.7v0c0.9,0,1.5-0.7,1.6-1.6h0v-5h0
				C31.3,14.3,30.6,13.6,29.8,13.6z M29.7,20.1h-1.6v-4.9h1.6V20.1z M38,10.3L38,10.3l-1.8,0v0c-0.9,0-1.5,0.7-1.6,1.6h0v0.1v1.6
				v8.1h1.6v-3.3h1.6v3.3h1.6v-9.8h0C39.5,11,38.8,10.3,38,10.3z M37.9,16.8h-1.6v-3.3v-1.6h1.6V16.8z M19.9,13.6L19.9,13.6l-1.7,0
				h-1.6h-0.8v1.6h0.8v6.5h1.6v-6.5h1.6v6.5h1.6v-6.6h0C21.5,14.3,20.8,13.6,19.9,13.6z M13.4,13.6L13.4,13.6l-1.8,0v0
				c-0.9,0-1.5,0.7-1.6,1.6h0v5h0c0,0.8,0.7,1.5,1.6,1.6v0h1.8v0c0.9,0,1.5-0.7,1.6-1.6h0v-5h0C14.9,14.3,14.2,13.6,13.4,13.6z
				 M13.3,20.1h-1.6v-4.9h1.6V20.1z M23.2,21.7h1.6v-8.1h-1.6V21.7z M23.2,11.9h1.6v-1.6h-1.6V11.9z M80.5,13.6L80.5,13.6
				c-0.9,0-1.5,0.7-1.6,1.6h0v6.6h1.6v-6.5h1.6v1.6h1.6v-1.6v-1.6h-1.6H80.5z M46.1,13.6h-1.6v6.5h-1.6v-6.5h-1.6v6.6h0
				c0,0.8,0.7,1.5,1.6,1.6v0h1.7h1.6H47v-1.6h-0.8V13.6z M69.2,10.3L69.2,10.3l-1.8,0v0c-0.9,0-1.5,0.7-1.6,1.6h0v8.3h0
				c0,0.8,0.7,1.5,1.6,1.6v0h1.7v0.8h1.6v-0.8v-1.6v-8.2h0C70.7,11,70,10.3,69.2,10.3z M69.1,20.1h-1.6v-8.1h1.6V20.1z M77.3,13.6
				h-1.6v6.5H74v-6.5h-1.6v6.6h0c0,0.8,0.7,1.5,1.6,1.6v0h1.7h1.6h0.8v-1.6h-0.8V13.6z M97,15.1c0-0.8-0.7-1.5-1.6-1.6v0h-1.7h-1.6
				h-0.8v1.6h0.8v6.5h1.6v-6.5h1.6v6.5H97L97,15.1L97,15.1z M85.5,13.6v1.6h3.3v1.6h-3.2v0c-0.9,0-1.5,0.7-1.6,1.6h0v1.8h0
				c0,0.8,0.7,1.5,1.6,1.6v0h3.2h0.1h1.6v-6.5v-1.6h-1.6H85.5z M88.8,20.1h-3.1v-1.6h3.1V20.1z M61,13.6L61,13.6l-1.8,0v0
				c-0.9,0-1.5,0.7-1.6,1.6h0v5h0c0,0.8,0.7,1.5,1.6,1.6v0H61v0c0.9,0,1.5-0.7,1.6-1.6h0v-5h0C62.5,14.3,61.8,13.6,61,13.6z
				 M60.9,20.1h-1.6v-4.9h1.6V20.1z M54.3,21.7H56v-8.1h-1.6V21.7z M51.1,13.6h-1.7v0c-0.9,0-1.5,0.7-1.6,1.6h0v5h0
				c0,0.8,0.7,1.5,1.6,1.6v0h1.7h0.1h1.6V10.3h-1.6V13.6z M51.1,20.1h-1.6v-4.9h1.6V20.1z M54.3,11.9H56v-1.6h-1.6V11.9z"/>
		</g>
	</g>
	<g id="Rectangle_1_00000180342513943567292150000000495422484327825816_">
		<g>
			<path class="st1" d="M138.8,0.4H117c-2.8,0-5.1,2.2-5.1,5v21.7c0,2.8,2.3,5,5.1,5h21.8c2.8,0,5.1-2.2,5.1-5V5.4
				C143.8,2.6,141.6,0.4,138.8,0.4z"/>
		</g>
	</g>
	<g id="Rectangle_1_copy_21_00000103972669301121940370000002004618101025693614_">
		<g>
			<path class="st0" d="M179.3,9h-2.1v2.1h2.1V9z M164.8,23.6h2.1v-2.1h-2.1V23.6z M171,23.6h6.2v-2.1H171V23.6z M255.7,9.1h-6.1
				v2.1h6.1V9.1z M198.2,13.2H192v2.1h6.2V13.2z M243.5,11.1h4.1V9.1h-4.1h-2.1v2.1v8.3h2.1V11.1z M235.3,19.5v-2.1h-2.1v2.1H235.3z
				 M185.4,13.2h-2.1h-2.1h-2.1v2.1v2.1h-2.1v-4.1h-2.1v4.1h-2.1v-4.1H171v4.1h-10.2v-2h4v-2.1h-4h-2.1v2.1v2.1h0c0,1.1,0.9,2,1.9,2
				v0H171h2.1h2.1h2.1h2.1v0c1.1,0,2-0.9,2-2h0v-2.1h2.1v2.1v2.1h2.1h2.1v0c1.1,0,1.9-0.9,2-2h0v-2.1v-2.1h-2.1H185.4z M187.5,17.3
				h-2.1v-2.1h2.1V17.3z M225,13.2L225,13.2l-6.3,0h-2.1v2.1v2.1h-2.1v-4.2h-2.1v4.2h-2.1v-2.1v-2.1h-2.1h-2.2v0
				c-1.1,0.1-1.9,0.9-1.9,2h0v2.2v2v0h4.1v2.1h-4.1v2.1h4.2v0c1.1-0.1,1.9-0.9,1.9-2h0v-2.1h6.2h2.1h6.2h2.1v-2.1v-2.2h0
				C227,14.1,226.1,13.3,225,13.2z M208.5,17.4h-2.1v-2.1h2.1V17.4z M225,17.4h-6.2v-2.1h6.2V17.4z M237.3,21.5h-6.2v-6.2h4.1v-2.1
				H231v0c-1.1,0.1-1.9,0.9-1.9,2h0v6.3v2.1h2.1h6.2v0c1.1,0,1.9-0.9,2-2h0v-8.3h-2.1V21.5z M255.7,15.2c-0.1-1.1-0.9-1.9-2-2v0
				h-2.1h-2.1v2.1v2.1h-2.1v-4.2h-2.1v4.2v2.1v2.1h-4.1v2.1h4.3v0c1.1-0.1,1.9-0.9,1.9-2h0v-2.1h2.1h2.1h2h2.1v-2.1L255.7,15.2
				L255.7,15.2z M253.7,17.4h-2v-2.1h2V17.4z M200.3,17.4h-6.2H192v2.1v2.1h0c0,1.1,0.9,2,1.9,2v0h8.4v-2.1h-8.2v-2.1h8.2v0v-2v-4.2
				h-2.1V17.4z"/>
		</g>
	</g>
	<g id="Ellipse_2_copy_3_00000000906291944983713890000013592793949088956299_">
		<g>
			<path class="st2" d="M139.9,8.9c-0.1-2.6-2.2-4.6-4.7-4.7v0h-9.8V9v9.6h1.1v0h8.6v4.8h-14.5v-9.6h-4.8v9.6c0,0,0,0,0,0v0.3h0
				c0.2,2.4,2.2,4.4,4.7,4.5v0h14.8v0c2.5-0.1,4.6-2,4.7-4.5h0V9.1c0,0,0,0,0,0L139.9,8.9L139.9,8.9z M135.1,13.8h-4.8V9h4.8V13.8z
				 M132.2,12.5l1.1-1l0,0c0.1-0.1,0.2-0.3,0.2-0.4c0-0.4-0.3-0.7-0.7-0.7s-0.7,0.3-0.7,0.7c0,0.3,0.2,0.5,0.4,0.6l-0.6,0.6
				L132.2,12.5z"/>
		</g>
	</g>
	<g id="Rectangle_1_copy_48_00000072265350985208257810000001019135144434049200_">
		<g>
			<path class="st0" d="M120.6,13.8h4.8V9h-4.8V13.8z M125.4,4.2V9h4.8V4.2H125.4z"/>
		</g>
	</g>
</g>
</svg>
