<?xml version="1.0" encoding="utf-8"?>
<!-- Generator: Adobe Illustrator 28.3.0, SVG Export Plug-In . SVG Version: 6.00 Build 0)  -->
<svg version="1.1" id="Layer_1" xmlns="http://www.w3.org/2000/svg" xmlns:xlink="http://www.w3.org/1999/xlink" x="0px" y="0px"
	 viewBox="0 0 35.2 10.2" style="enable-background:new 0 0 35.2 10.2;" xml:space="preserve">
<style type="text/css">
	.st0{fill:#FFFFFF;}
	.st1{fill:#232262;}
	.st2{fill:#CEAD56;}
</style>
<g>
	<g id="Rectangle_1">
		<g>
			<path class="st0" d="M33,1.1h-5.4c-0.7,0-1.3,0.6-1.3,1.3v5.4c0,0.7,0.6,1.3,1.3,1.3H33c0.7,0,1.3-0.6,1.3-1.3V2.4
				C34.3,1.7,33.7,1.1,33,1.1z"/>
		</g>
	</g>
	<g id="Ellipse_2_copy_3">
		<g>
			<path class="st1" d="M31.4,4.2l0.3-0.3l0,0c0,0,0-0.1,0-0.1c0-0.1-0.1-0.2-0.2-0.2c-0.1,0-0.2,0.1-0.2,0.2c0,0.1,0,0.1,0.1,0.2
				L31.4,4.2L31.4,4.2z M33.3,3.3c0-0.6-0.5-1.2-1.2-1.2v0h-2.4v1.2v2.4h0.3v0h2.2v1.2h-3.6V4.5h-1.2v2.4c0,0,0,0,0,0V7h0
				c0,0.6,0.5,1.1,1.2,1.1v0h3.7v0c0.6,0,1.1-0.5,1.2-1.1h0L33.3,3.3C33.3,3.3,33.3,3.3,33.3,3.3L33.3,3.3L33.3,3.3z M32.1,4.5h-1.2
				V3.3h1.2V4.5z"/>
		</g>
	</g>
	<g id="Rectangle_1_copy_48">
		<g>
			<path class="st2" d="M28.5,4.5h1.2V3.3h-1.2V4.5z M29.7,2.1v1.2h1.2V2.1H29.7z"/>
		</g>
	</g>
	<g id="Rectangle_1_copy_21">
		<g>
			<path class="st2" d="M2.5,5.1h0.5V4.6H2.5V5.1z M6.2,1.5H5.6V2h0.5V1.5z M10.9,2.5H9.3v0.5h1.5V2.5z M4.1,5.1h1.5V4.6H4.1V5.1z
				 M25.2,1.5h-1.5V2h1.5V1.5z M22.2,2h1V1.5h-1h-0.5V2v2.1h0.5V2z M20.1,4.1V3.6h-0.5v0.5H20.1z M7.7,2.5H7.2H6.7H6.1v0.5v0.5H5.6
				v-1H5.1v1H4.6v-1H4.1v1H1.5V3.1h1V2.5h-1H1v0.5v0.5h0c0,0.3,0.2,0.5,0.5,0.5v0h2.6h0.5h0.5h0.5h0.5v0c0.3,0,0.5-0.2,0.5-0.5h0
				V3.1h0.5v0.5v0.5h0.5h0.5v0c0.3,0,0.5-0.2,0.5-0.5h0V3.1V2.5H8.2H7.7z M8.2,3.6H7.7V3.1h0.5V3.6z M25.2,3c0-0.3-0.2-0.5-0.5-0.5
				v0h-0.5h-0.5v0.5v0.5h-0.5v-1h-0.5v1v0.5v0.5h-1v0.5h1.1v0c0.3,0,0.5-0.2,0.5-0.5h0V4.1h0.5h0.5h0.5h0.5V3.6L25.2,3L25.2,3z
				 M24.7,3.6h-0.5V3.1h0.5V3.6z M20.6,4.6h-1.5V3.1h1V2.5h-1.1v0c-0.3,0-0.5,0.2-0.5,0.5h0v1.6v0.5h0.5h1.6v0
				c0.3,0,0.5-0.2,0.5-0.5h0V2.5h-0.5V4.6z M11.4,3.6H9.9H9.3v0.5v0.5h0c0,0.3,0.2,0.5,0.5,0.5v0h2.1V4.6H9.9V4.1h2.1v0V3.6v-1h-0.5
				V3.6z M17.6,2.5L17.6,2.5l-1.6,0h-0.5v0.5v0.5H15v-1h-0.5v1H14V3.1V2.5h-0.5h-0.5v0c-0.3,0-0.5,0.2-0.5,0.5h0v0.5v0.5v0h1v0.5h-1
				v0.5h1.1v0c0.3,0,0.5-0.2,0.5-0.5h0V4.1h1.5H16h1.6h0.5V3.6V3h0C18.1,2.8,17.8,2.6,17.6,2.5z M13.4,3.6h-0.5V3.1h0.5V3.6z
				 M17.6,3.6H16V3.1h1.6V3.6z"/>
		</g>
	</g>
	<g id="Rectangle_1_copy_116">
		<g>
			<path class="st2" d="M8.3,6.3L8.3,6.3l-0.4,0V5.5H7.5v2.8h0.4h0h0.4v0c0.2,0,0.4-0.2,0.4-0.4h0V6.7h0C8.7,6.5,8.6,6.4,8.3,6.3z
				 M8.3,8H7.9V6.8h0.4V8z M2.6,5.5L2.6,5.5l-0.4,0H1.8H1.3v0C1.1,5.5,1,5.7,1,5.9h0v2.5h0.4V5.9h0.4v2.4h0.4V5.9h0.4v2.4H3V5.9h0
				C3,5.7,2.8,5.5,2.6,5.5z M6.7,8.4h0.4v-2H6.7V8.4z M5.9,6.3L5.9,6.3l-0.4,0H5H4.8v0.4H5v1.6h0.4V6.8h0.4v1.6h0.4V6.7h0
				C6.3,6.5,6.1,6.4,5.9,6.3z M10.4,5.5L10.4,5.5l-0.4,0v0c-0.2,0-0.4,0.2-0.4,0.4h0v0v0.4v2H10V7.6h0.4v0.8h0.4V5.9h0
				C10.8,5.7,10.6,5.5,10.4,5.5z M10.4,7.2H10V6.3V5.9h0.4V7.2z M6.7,5.9h0.4V5.5H6.7V5.9z M4.2,6.3L4.2,6.3l-0.4,0v0
				c-0.2,0-0.4,0.2-0.4,0.4h0V8h0c0,0.2,0.2,0.4,0.4,0.4v0h0.4v0c0.2,0,0.4-0.2,0.4-0.4h0V6.7h0C4.6,6.5,4.5,6.4,4.2,6.3z M4.2,8
				H3.8V6.8h0.4V8z M14.5,8.4h0.4v-2h-0.4V8.4z M12.4,6.3H12V8h-0.4V6.3h-0.4V8h0c0,0.2,0.2,0.4,0.4,0.4v0H12h0.4h0.2V8h-0.2V6.3z
				 M21,6.3L21,6.3c-0.2,0-0.4,0.2-0.4,0.4h0v1.6H21V6.8h0.4v0.4h0.4V6.8V6.3h-0.4H21z M22.2,6.3v0.4h0.8v0.4h-0.8v0
				c-0.2,0-0.4,0.2-0.4,0.4h0V8h0c0,0.2,0.2,0.4,0.4,0.4v0h0.8h0h0.4V6.8V6.3h-0.4H22.2z M23.1,8h-0.8V7.6h0.8V8z M25.1,6.7
				c0-0.2-0.2-0.4-0.4-0.4v0h-0.4h-0.4h-0.2v0.4h0.2v1.6h0.4V6.8h0.4v1.6h0.4L25.1,6.7L25.1,6.7z M20.2,6.3h-0.4V8h-0.4V6.3H19V8h0
				c0,0.2,0.2,0.4,0.4,0.4v0h0.4h0.4h0.2V8h-0.2V6.3z M18.2,5.5L18.2,5.5l-0.4,0v0c-0.2,0-0.4,0.2-0.4,0.4h0V8h0
				c0,0.2,0.2,0.4,0.4,0.4v0h0.4v0.2h0.4V8.4V8v-2h0C18.6,5.7,18.4,5.5,18.2,5.5z M18.2,8h-0.4v-2h0.4V8z M13.6,6.3h-0.4v0
				c-0.2,0-0.4,0.2-0.4,0.4h0V8h0c0,0.2,0.2,0.4,0.4,0.4v0h0.4h0h0.4V5.5h-0.4V6.3z M13.6,8h-0.4V6.8h0.4V8z M14.5,5.9h0.4V5.5h-0.4
				V5.9z M16.1,6.3L16.1,6.3l-0.4,0v0c-0.2,0-0.4,0.2-0.4,0.4h0V8h0c0,0.2,0.2,0.4,0.4,0.4v0h0.4v0c0.2,0,0.4-0.2,0.4-0.4h0V6.7h0
				C16.5,6.5,16.3,6.4,16.1,6.3z M16.1,8h-0.4V6.8h0.4V8z"/>
		</g>
	</g>
</g>
</svg>
