<svg id="Layer_1" data-name="Layer 1" xmlns="http://www.w3.org/2000/svg" viewBox="0 0 299.53 96.36"><defs><style>.cls-1{fill:#2e3e36;fill-rule:evenodd;}</style></defs><g id="Shape_15" data-name="Shape 15"><path class="cls-1" d="M237.51,14.72c.18,1.26,1.72,1.23,1.72,1.23a3.6,3.6,0,0,0,3-1.51,2.93,2.93,0,0,0-1.08-3.74c-1.08-.79-1.36-.36-1.36-.36a1.76,1.76,0,0,0-.72,1.29C237.36,13.43,237.51,14.72,237.51,14.72Zm1.8-2.66s.74-.07,1.65,1.37c0,0,.41.67-.65.86,0,0-1.2.24-1.58-.72C238.73,13.57,238.59,13,239.31,12.06ZM141.76,33.13c1.52.76,5.28,3.19,5.28,3.19,1.56,1,1.87-.36,1.87-.36l1.3-2.55c.89-1.48-.05-2-.05-2l-4.81-3.62c-.65-.89-1.16-.4-1.16-.4A21.51,21.51,0,0,0,141,32.08C140.72,32.7,141.76,33.13,141.76,33.13ZM131.05,19.61c.18,1.26,1.73,1.22,1.73,1.22a3.6,3.6,0,0,0,2.95-1.51,2.91,2.91,0,0,0-1.08-3.73c-1.08-.79-1.37-.36-1.37-.36a1.81,1.81,0,0,0-.72,1.29C130.91,18.32,131.05,19.61,131.05,19.61Zm1.8-2.66s.74-.07,1.66,1.37c0,0,.4.67-.65.86,0,0-1.2.24-1.58-.72C132.28,18.46,132.13,17.91,132.85,17Zm142,42.82a37,37,0,0,0-.79-6.3C277.64,51,284,50.16,284,50.16c1.25-.17,1.08.22,1.08.22-2.06,7.66,3.45,8.84,3.45,8.84,5.54.57,8.7-4.6,8.7-4.6.6-1.32.79-1.3.79-1.3.29,2.66,3.59,3.88,3.59,3.88,3.92,1.59,6.69-1.86,6.69-1.86a16.84,16.84,0,0,0,.86-11.29c-.5-1.55-1.15-.36-1.15-.36a18.62,18.62,0,0,0-1.65,4.82.81.81,0,0,0,.29.5,3.55,3.55,0,0,1,.5,1.65c.33.87-.36.79-.36.79a5.4,5.4,0,0,1-5.68-1.94,1.36,1.36,0,0,1,0-2c1.92-2.9.79-3.59.79-3.59-2.54.31-4.74,6.18-4.74,6.18a7.85,7.85,0,0,1-6.76,3.23A3.94,3.94,0,0,1,287,49.08a17.4,17.4,0,0,0,.72-2.59c1-2.58-.57-2.22-.57-2.22-9.64,1.29-13.66,4.6-13.66,4.6-1.19,1.58-2.16,6-2.16,6a1.68,1.68,0,0,0,0,1.37c.33.91.59,1.77.79,2.54a23.07,23.07,0,0,0-3.37-.67,54.6,54.6,0,0,0-9.21-.65S248.64,57,243.76,56.2c0,0,2-1.53,4.53-3.67a11.9,11.9,0,0,1,1.15,2.09s.35.87.93.79c0,0,1.48-.49.58-4.68a57.86,57.86,0,0,1,21.52-10.91l1.25-.66s1.13-.12,1.41-2.16c0,0,.8-3.09.33-3.65,0,0-.24-.38-2-.61,0,0-8.34-1.28-23.6-2.56l-5.1-.43s-11.54-1.46-11.29,4.81c0,0-2.41,5.77,5.39,11.22,0,0,6.32,3.6,6.83,4.09,0,0-4.19,3.56-5.6,5.9,0,0-4.79.56-7.7-1.8a9.65,9.65,0,0,1-1.29-2.37s-.45.11-.21,2.23a9.31,9.31,0,0,0,6.1,7,35.11,35.11,0,0,0-4.78,17.89,98.18,98.18,0,0,1-19.51,2.95c-2-.07-2.16.44-2.16.44.11.5,1.73.43,1.73.43a95,95,0,0,0,16.39,1.79l3.89-.46c.68,3.88,3.48,12.68,14.72,14.12,0,0,14.43,2.37,26.74-11.79a25,25,0,0,0,5.9-20.7S279.52,62.06,274.88,59.77Zm-30.4-17.09c-7.47-3-8.84-6.75-8.84-6.75,1.61-1.31,16.39.5,16.39.5,5.51.53,12.65.79,12.65.79-11.62,6.34-15.31,9.56-15.31,9.56C248.09,45,244.48,42.68,244.48,42.68Zm-5.25,19s7.06,1.21,24.08,1.8a31.19,31.19,0,0,1,8.31,1.53c-5.28,5.89-22.25,10-22.25,10L235,78.12C234.64,74.16,235.3,68.61,239.23,61.73Zm36.06,18.83a33.06,33.06,0,0,1-16.65,10.93S243.53,95.26,237.29,85a9.5,9.5,0,0,1-.87-1.57h.08a140.83,140.83,0,0,0,29-9.34A14.78,14.78,0,0,0,273.92,66a9.62,9.62,0,0,1,3.19,2.52S281.22,72.58,275.29,80.56ZM162.61,27.23C188.67,14.94,214.72,6,214.72,6a17.55,17.55,0,0,1,4-1l1.65-1.87c1-1.68-.36-1.29-.36-1.29A540.82,540.82,0,0,0,163.4,23.64c-2.3,1.87-1.72,3.95-1.72,3.95C162,27.81,162.61,27.23,162.61,27.23Zm125.64-1.58c-1.5,1.47-2.94,5-2.94,5a1.36,1.36,0,0,0,.79.58l4.38,2.8a1.79,1.79,0,0,0,2.66-.5,14.87,14.87,0,0,1,2.16-3.1,23.5,23.5,0,0,1,4.17,2.59,4.3,4.3,0,0,0,1.79,1.15,12.43,12.43,0,0,0,2.66-3.52c.83-1.51-.07-1.87-.07-1.87a66.36,66.36,0,0,0-5.75-3.52l-3.3,4.53ZM290,15.9a20.57,20.57,0,0,0-2.77,4.26c-.28.55.57,1,.57,1,1.21.76,4.56,3.38,4.56,3.38,1.45,1.15,1.76-.21,1.76-.21l1.3-2.44c.89-1.44,0-2,0-2L291,16.28C290.43,15.45,290,15.9,290,15.9ZM217.24,59.14c2.69.11,2.44-1.15,2.44-1.15a29.19,29.19,0,0,1,.94-3.23c.68-1.51-.72-1.22-.72-1.22-8.74-.4-36.52-7.19-36.52-7.19,4.35-1.72,7.26-7.48,7.26-7.48,1.26-1.79,1.44-.21,1.44-.21.11,3.13,2.95,5.1,2.95,5.1,7.65,4.67,24.44-1.29,24.44-1.29,7-2,8.48-7.4,8.48-7.4,1.36-2.74.43-4.53.43-4.53-3.81-8.84-11.36-9.2-11.36-9.2-8-.79-19.19,17.18-19.19,17.18A10.87,10.87,0,0,1,194.45,35c-.07-1.94-.86-2.22-.86-2.22-1.9-.47-4.46,4.6-4.46,4.6-1.9,4.31-7.69,5.31-7.69,5.31-4.63,1.23-6,3.89-6,3.89a11,11,0,0,1-1.15,1.79c-1.51,1.87.86,1.94.86,1.94,8,1.87,22.07,5.18,22.07,5.18a42.65,42.65,0,0,0-8.49,2.8,75.46,75.46,0,0,1-7.9,2.66c-3.09,1.08-4,.72-4,.72-1.18-.14-2.08-1.8-2.08-1.8-1.15-1.72-1.87-6.18-1.87-6.18-.32-1.76-1-.5-1-.5a40.06,40.06,0,0,1-5.31,6.25,10.89,10.89,0,0,1-11.94,2.81c4.86-4.14,3.67-12.66,3.67-12.66-1-5.39-3-5.6-3-5.6a6.81,6.81,0,0,0-3.81,1.44,16.91,16.91,0,0,0-6.47,10.78A8.64,8.64,0,0,0,146.65,62c-5.57,2.26-9.05,1-9.05,1-3.78-.69-5.25-5.32-5.25-5.32-.61-1.62-2.52-7-2.52-7-1.36-3.37-2.51-3.3-2.51-3.3-2.27-.9-5.39,2.3-5.39,2.3-3.85,2.8-7.48,12.51-7.48,12.51a39.21,39.21,0,0,1-3.16,7.4c-3.13,5.14-6.54,4.31-6.54,4.31C99.1,70.29,98.93,63.1,98.93,63.1l2.87-.79c5.39-1.91,7.84-1.3,7.84-1.3a2.22,2.22,0,0,0,2.3-1.65l.57-3.23c.22-1.41-1.22-1-1.22-1-7.41.79-17.54-.72-17.54-.72-5.89-.36-12-1.36-12-1.36-3-.33-3.38-.65-3.38-.65.07-.36,1.15-.65,1.15-.65A12,12,0,0,0,86.78,46l1.58-2.73c1.11-1.55,1.36.72,1.36.72,1.3,5.78,5.83,6.4,5.83,6.4,5.39.21,8.41-5.75,8.41-5.75,1.61,3.23,5.46,3.3,5.46,3.3,5.46-.25,6.11-7.26,6.11-7.26a12,12,0,0,0,0-5,2.47,2.47,0,0,1-.22-1.29c.26-1.76-.86-.94-.86-.94-2.23,3.06-2.16,4.89-2.16,4.89a2.54,2.54,0,0,1,.65,2.09c.47,1.15-.29,1.51-.29,1.51a7,7,0,0,1-5.75-1.44c-1-.47-.43-1.15-.43-1.15l.36-1c1.44-3.16.43-3.16.43-3.16-.86-.07-3.38,5.1-3.38,5.1a6.87,6.87,0,0,1-6.25,4.46,6.59,6.59,0,0,1-5.32-4.39c-.47-3.88-1.79-3.3-1.79-3.3-2,.39-3.6,4.45-3.6,4.45-.72,2.2-3.88,4-3.88,4l-3.81,2c-6.4,2.84-8,6.83-8,6.83-1.94,2.05,1.29,2.44,1.29,2.44,2.48.72,11.94,2.09,11.94,2.09,5.53.54,10.49,1,10.49,1-3.38,1.51-10.78,5-10.78,5-6,3.16-9.92,2.3-9.92,2.3-5.68-1-5-22.22-5-22.22.36-7.4-.43-20.12-.43-20.12-.76-10.53-2.23-14.74-2.23-14.74.14-.86-.22-1.15-.22-1.15-.64-.14-1.22,1.37-1.22,1.37a21.73,21.73,0,0,1-1,2.59c-.51.93-.29,1.43-.29,1.43.29,1.41.93,3.53.93,3.53a130.34,130.34,0,0,1,1.73,27.45c-.51,6.62,1.08,18,1.08,18,1.54,8.44,4.81,8.91,4.81,8.91,4.06,2.66,19.12-5.61,19.12-5.61,2.88-1.47,5.75-3,5.75-3a28.43,28.43,0,0,0,1,6.11c2.44,9.56,7.47,9.35,7.47,9.35,6-.18,10.79-13,10.79-13,2-8.13,6-11.14,6-11.14A5.66,5.66,0,0,1,126,53.54c1.12.57,1.94,3.38,1.94,3.38,1.26,4.06,2.23,6.47,2.23,6.47,2.59,6.21,7.33,5.6,7.33,5.6,5.68.29,12.15-3.23,12.15-3.23,2.7,3.12,7.83,2.94,7.83,2.94,5.29-.1,11.51-6.39,11.51-6.39a8.21,8.21,0,0,1,1.86-1.66,4.41,4.41,0,0,1,1,2.09c1.87,8.26,11.64,2.87,11.64,2.87C202.72,56.92,217.24,59.14,217.24,59.14ZM207.18,30.25c4-4.46,7.54-3.74,7.54-3.74a14.87,14.87,0,0,1,10,9.13c-3.91,2.12-11.93,3.59-11.93,3.59-9.77,1.41-13.51-.14-13.51-.14A116.62,116.62,0,0,1,207.18,30.25ZM146.94,54s2.95-4.85,5.89-4.46c0,0,3.49,1.08,2.81,7.48,0,0-.79,1.47-4.67,3.23C151,60.29,146.51,56.41,146.94,54ZM307.66,70.82c-.35-.35-.49-.07-.49-.07-.07.15-.49,1-.49,1-.25.41.42,1.05.42,1.05.26.2.18.26.18.26a2.74,2.74,0,0,1-.86.32c-1.2-.15-1.09-.82-1.09-.82.32-.85-.12-.88-.12-.88-.46,0-1.11,1.47-1.11,1.47a1.89,1.89,0,0,1-1.26,1.42,1.81,1.81,0,0,1-1.76-.66c-2.56-2.72-6.85,1.58-6.85,1.58a20.91,20.91,0,0,1-3.52,2.63c-2.6,2-9.22,3.49-9.22,3.49-.87.3.15.61.15.61,6.57.64,13.46-6,13.46-6,3.25-2.93,5.21-.93,5.21-.93a1.81,1.81,0,0,0,1.78.79c2-.41,2-1.74,2-1.74.3-.73.48-.07.48-.07.17.72,1.35.72,1.35.72,2.73-.47,2.56-2.5,2.56-2.5C308.59,71.82,307.66,70.82,307.66,70.82ZM293.29,4.37c1.18-1.21,0-1.36,0-1.36C280.49,7.84,255,20.61,255,20.61c-1.86,1.13-1.33,2.52-1.33,2.52C260.09,19,293.29,4.37,293.29,4.37Zm-187.41,22c-3.95,5.15-4,6.13-4,6.13a32.28,32.28,0,0,1,4.24-4.56c7.93-9.36,1.35-19.12,1.35-19.12a19.29,19.29,0,0,0-1.62-2c-.37-.77-.82-.19-.82-.19l-1.87,5c0,.6,1.26,1.44,1.26,1.44a14.77,14.77,0,0,1,1.86,2.89C109.36,23.78,105.88,26.34,105.88,26.34ZM62.84,52C61.91,50.12,58,49,58,49a46.69,46.69,0,0,1-8.41-3.09c-4.78-2.34-6.47-4-6.47-4a3.38,3.38,0,0,1,.72-.28c.93.14,1.07-.15,1.07-.15.15-.72-.64-.93-.64-.93-.94-.58-5.39-3.09-5.39-3.09-1.19-.69-1.3-.51-1.3-.51-.86.36-.79,3.45-.79,3.45A22.64,22.64,0,0,1,36.61,43a1.1,1.1,0,0,0,.64.36,10.1,10.1,0,0,1,3.67,2.37c6,6.65,15.6,8.84,15.6,8.84,5.24,1.19,5.75,3.53,5.75,3.53C62.05,59,60,60.44,60,60.44c-4.46,2.91-12.15,7.69-12.15,7.69C44,70.57,36.89,74,36.89,74c-2.8,1.8-4.24,1.51-4.24,1.51-4-1-2.8-5-2.8-5a46,46,0,0,1,1.65-7C35.53,62,36,59.94,36,59.94c2.59-7.73-.93-12-.93-12-.32-1.44-.87-1.36-.87-1.36-.43,0-.57.64-.57.64a21.23,21.23,0,0,1-1.15,4c-.34,1.1.43,1.44.43,1.44a5.27,5.27,0,0,1,1.37,1.79c.76,1.22.36,1.94.36,1.94a5.21,5.21,0,0,1-1.08.72,3.08,3.08,0,0,1-2.52.22c-3-1-3.38-5.11-3.38-5.11C27.3,48.65,26.83,42,26.83,42c-.25-4.39-1.37-10.57-1.37-10.57l-1.07-4.46c-.69-3.09-1.23-3-1.23-3C22.55,24,22,25.79,22,25.79a17,17,0,0,1-.86,2.95A1.41,1.41,0,0,0,21.22,30a20.22,20.22,0,0,1,1.23,4.31,38.74,38.74,0,0,0-4.89,4.1,20.67,20.67,0,0,0-6.18,9.06c-1.8,3.63-.94,5.25-.94,5.25,1.66,3.59,9.42-.8,9.42-.8,2.59-1,4.17-4.24,4.17-4.24a59.29,59.29,0,0,0,1.29,10.5c1.29,5.53,5.25,5.39,5.25,5.39A24.77,24.77,0,0,0,28,72.08C26.58,80,30.93,81,30.93,81c3.41,1.69,15.24-5.75,15.24-5.75,3.84-3,12.5-8.63,12.5-8.63,5.79-3.77,5.32-9,5.32-9C64.17,53.72,62.84,52,62.84,52ZM23.31,44.7s-.39,1.29-5.68,3.16c0,0-3.35,1-4.46-.14,0,0-.12-1.27,2.59-4,0,0,5.58-5.39,7.12-6.83A32,32,0,0,1,23.31,44.7ZM86.83,79,82,75.4c-.64-.9-1.15-.4-1.15-.4a21.77,21.77,0,0,0-3.16,4.74c-.32.61.72,1.05.72,1.05C80,81.55,83.71,84,83.71,84c1.56,1,1.87-.37,1.87-.37l1.31-2.55C87.78,79.58,86.83,79,86.83,79Zm93.1-.75a66.36,66.36,0,0,0-5.75-3.52l-3.3,4.53-6.54-4.17c-1.51,1.48-3,5-3,5a1.36,1.36,0,0,0,.79.58l4.38,2.8a1.79,1.79,0,0,0,2.66-.5,14.62,14.62,0,0,1,2.16-3.09,22.92,22.92,0,0,1,4.17,2.59,4.43,4.43,0,0,0,1.8,1.15A12.66,12.66,0,0,0,180,80.13C180.83,78.62,179.93,78.26,179.93,78.26Zm-37.66-7c-.28-.81-.79-.29-.79-.29L139,75.68c-.08.6,1.08,1.58,1.08,1.58a15.08,15.08,0,0,1,1.51,3.09C143.79,88.56,140,90.7,140,90.7c-4.53,4.64-4.74,5.61-4.74,5.61a32.2,32.2,0,0,1,4.74-4c9-8.36,3.59-18.83,3.59-18.83A18.34,18.34,0,0,0,142.27,71.22ZM86.49,24.14c-.09,2.37,1.15,2.3,1.15,2.3,1.07.36,2.37-1.65,2.37-1.65.12-.29.22-.15.22-.15a1.47,1.47,0,0,0,2.37.43,3.09,3.09,0,0,0,.72-3.52,6,6,0,0,1-.5-2.87c0-.83-.58-.29-.58-.29a5.13,5.13,0,0,0-.43,2.73,22.25,22.25,0,0,0,.65,2.23c.08.49-.79.29-.79.29-.85,0-.94-1.15-.94-1.15a7.15,7.15,0,0,0-.29-1.94c-.22-1.25-.72-1.15-.72-1.15-.25.18-.35.93-.35.93-.19.78,0,.93,0,.93a5,5,0,0,1,.43,2c-.35,1.66-1.37,1.58-1.37,1.58-1.1.1-.93-1.22-.93-1.22.35-3.45-.51-3.53-.51-3.53-.76,0-.86,1.66-.86,1.66C86.82,22.39,86.49,24.14,86.49,24.14ZM30.78,26c-.09,2.37,1.15,2.3,1.15,2.3,1.08.36,2.38-1.65,2.38-1.65.11-.29.21-.15.21-.15a1.47,1.47,0,0,0,2.37.43,3.07,3.07,0,0,0,.72-3.52,6,6,0,0,1-.5-2.87c0-.83-.58-.29-.58-.29A5.13,5.13,0,0,0,36.1,23a22.25,22.25,0,0,0,.65,2.23c.09.49-.79.29-.79.29-.84,0-.94-1.15-.94-1.15a7.55,7.55,0,0,0-.28-1.95c-.23-1.24-.72-1.15-.72-1.15-.26.19-.36.94-.36.94-.18.78,0,.93,0,.93a5,5,0,0,1,.43,2c-.34,1.66-1.37,1.58-1.37,1.58-1.09.1-.93-1.22-.93-1.22.36-3.45-.5-3.53-.5-3.53-.76,0-.87,1.66-.87,1.66C31.11,24.26,30.78,26,30.78,26ZM211.34,72.44s-5,4-8.41,4.1c0,0-2,0-2.73-.86,0,0-.25-.29,1.08-1.87,0,0,1.33-1.19,3-2.45,0,0,1.47-1.36-.36-1.94a8.82,8.82,0,0,0-3.74.43,2.78,2.78,0,0,0-1.08,1.87s0,.69.58.65c0,0,.54.11.5-.72,0,0-.21-.36.51-.43l2.15-.14s.75.07.07.5c0,0-3.54,2.16-4.09,4.82,0,0,.09,1.91,3.3,1.65,0,0,4.27-.19,9.35-5.32C211.49,72.73,211.85,72.23,211.34,72.44ZM19.43,71.73l2.29-3.61A1.88,1.88,0,0,0,21.43,66a26.74,26.74,0,0,0-4.37-4,15.12,15.12,0,0,0-2.83,5.16,1.5,1.5,0,0,0,.4.55l4,4.41-2.35,3.76c-.44.89.08,1.22.08,1.22L21,81.13c.39.34.6.25.6.25a17.48,17.48,0,0,0,3.18-4.24C23.19,75.26,19.43,71.73,19.43,71.73Z" transform="translate(-10.23 -1.82)"/></g></svg>