<svg id="Layer_1" data-name="Layer 1" xmlns="http://www.w3.org/2000/svg" width="100" height="100" viewBox="0 0 100 100"><defs><style>.cls-1{fill:#719485;}.cls-1,.cls-2{fill-rule:evenodd;}.cls-2{fill:#2e3e36;}</style></defs><g id="Ellipse_8_copy_8" data-name="Ellipse 8 copy 8"><path class="cls-1" d="M49.77,13A37.06,37.06,0,0,0,12.71,50.1h3.85A33.22,33.22,0,0,1,83,50.1h3.85A37.07,37.07,0,0,0,49.77,13Z"/></g><g id="Ellipse_8_copy_10" data-name="Ellipse 8 copy 10"><path class="cls-2" d="M14.67,46.3A13.27,13.27,0,0,0,1.4,59.22h0V74.16h0a13.27,13.27,0,0,0,26.53,0h0V59.22h0A13.27,13.27,0,0,0,14.67,46.3ZM24,73.76a9.37,9.37,0,1,1-18.73,0V59.62a9.37,9.37,0,1,1,18.73,0Zm74.4-14.54a13.27,13.27,0,0,0-26.53,0h0V74.16h0a13.27,13.27,0,0,0,26.53,0h0V59.22Zm-3.9,14.54a9.37,9.37,0,1,1-18.73,0V59.62a9.37,9.37,0,1,1,18.73,0Z"/></g></svg>