<?xml version="1.0" encoding="utf-8"?>
<!-- Generator: Adobe Illustrator 28.3.0, SVG Export Plug-In . SVG Version: 6.00 Build 0)  -->
<svg version="1.1" id="Layer_1" xmlns="http://www.w3.org/2000/svg" xmlns:xlink="http://www.w3.org/1999/xlink" x="0px" y="0px"
	 viewBox="0 0 100 100" style="enable-background:new 0 0 100 100;" xml:space="preserve">
<style type="text/css">
	.st0{fill:#2D3D35;}
	.st1{fill:#40BA8D;}
</style>
<g>
	<g id="Rounded_Rectangle_1_copy_72">
		<g>
			<path class="st0" d="M59.1,60h18.2c0.9,0,1.6-0.7,1.6-1.6c0-0.9-0.7-1.6-1.6-1.6H59.1c-0.9,0-1.6,0.7-1.6,1.6
				C57.6,59.3,58.3,60,59.1,60z M59.1,38.8h18.2c0.9,0,1.6-0.7,1.6-1.6c0-0.9-0.7-1.6-1.6-1.6H59.1c-0.9,0-1.6,0.7-1.6,1.6
				C57.6,38.1,58.3,38.8,59.1,38.8z M59.1,49.4h18.2c0.9,0,1.6-0.7,1.6-1.6s-0.7-1.6-1.6-1.6H59.1c-0.9,0-1.6,0.7-1.6,1.6
				S58.3,49.4,59.1,49.4z M21.9,38.8h18.2c0.9,0,1.6-0.7,1.6-1.6c0-0.9-0.7-1.6-1.6-1.6H21.9c-0.9,0-1.6,0.7-1.6,1.6
				C20.4,38.1,21.1,38.8,21.9,38.8z M92.5,27.6h-4.8c-0.9,0-1.6,0.7-1.6,1.6c0,0.9,0.7,1.6,1.6,1.6h3.2v46.8H9.1V30.7h3.2
				c0.9,0,1.6-0.7,1.6-1.6c0-0.9-0.7-1.6-1.6-1.6H7.5c-0.9,0-1.6,0.7-1.6,1.6V79c0,0.9,0.7,1.6,1.6,1.6H92c0.1,0,0.2,0,0.2,0
				c0.1,0,0.2,0,0.2,0c0.9,0,1.6-0.7,1.6-1.6V29.1C94,28.3,93.3,27.6,92.5,27.6z M21.9,49.4h18.2c0.9,0,1.6-0.7,1.6-1.6
				s-0.7-1.6-1.6-1.6H21.9c-0.9,0-1.6,0.7-1.6,1.6S21.1,49.4,21.9,49.4z M21.9,60h18.2c0.9,0,1.6-0.7,1.6-1.6c0-0.9-0.7-1.6-1.6-1.6
				H21.9c-0.9,0-1.6,0.7-1.6,1.6C20.4,59.3,21.1,60,21.9,60z"/>
		</g>
	</g>
	<g id="Rounded_Rectangle_1_copy_79">
		<g>
			<path class="st1" d="M88.6,20.8C88.6,20.8,88.6,20.8,88.6,20.8L88.6,20.8c0-0.1,0-0.2,0-0.2c-0.1-0.6-0.7-1.1-1.4-1.2
				c0,0,0,0,0,0H60.3c-4.4,0-8.2,2.4-10.3,5.9c-2.1-3.5-5.9-5.9-10.3-5.9l-26.6,0c0,0,0,0,0,0c0,0-0.1,0-0.1,0c-0.7,0-1.2,0.4-1.4,1
				c-0.1,0.1-0.1,0.2-0.1,0.4c0,8.3,0,52.4,0,52.4h0c0.1,0.8,0.7,1.4,1.6,1.4h26.2c0,0,6.6-0.2,7.8,2.9h6.2c1.2-3.1,7.8-2.9,7.8-2.9
				h26.2c0.8,0,1.5-0.6,1.6-1.4h0C88.6,73.2,88.6,29.5,88.6,20.8C88.6,20.9,88.6,20.8,88.6,20.8z M48.3,31.4V74
				c-2.9-2.7-9.2-2.6-9.2-2.6H14.7v-49H39c4.7,0,8.5,3.3,9.4,7.7C48.3,30.6,48.3,31,48.3,31.4z M85.3,71.5H60.9c0,0-6.3-0.1-9.2,2.6
				V31.4c0-0.4,0-0.8-0.1-1.2c0.9-4.4,4.8-7.7,9.4-7.7h24.2V71.5z"/>
		</g>
	</g>
</g>
</svg>
