<?xml version="1.0" encoding="utf-8"?>
<!-- Generator: Adobe Illustrator 28.3.0, SVG Export Plug-In . SVG Version: 6.00 Build 0)  -->
<svg version="1.1" id="Layer_1" xmlns="http://www.w3.org/2000/svg" xmlns:xlink="http://www.w3.org/1999/xlink" x="0px" y="0px"
	 viewBox="0 0 100 100" style="enable-background:new 0 0 100 100;" xml:space="preserve">
<style type="text/css">
	.st0{enable-background:new    ;}
	.st1{fill:#40BA8E;}
	.st2{fill:#2E3E36;}
</style>
<g>
	<g id="Rounded_Rectangle_1_copy_11" class="st0">
		<g id="Rounded_Rectangle_1_copy_11-2">
			<path class="st1" d="M93.6,82.6h-9.4v-9.4c0-1.2-1-2.2-2.2-2.2c-1.2,0-2.2,1-2.2,2.2v9.4h-9.1c-1.2,0-2.2,1-2.2,2.2
				s1,2.2,2.2,2.2h9.1v9.1c0,1.2,1,2.2,2.2,2.2c1.2,0,2.2-1,2.2-2.2V87h9.4c1.2,0,2.2-1,2.2-2.2S94.8,82.6,93.6,82.6z"/>
		</g>
	</g>
	<g id="Rounded_Rectangle_1_copy_10" class="st0">
		<g id="Rounded_Rectangle_1_copy_10-2">
			<path class="st2" d="M81.1,65.3c-0.3-0.3-0.6-0.4-1-0.6l0,0L56.6,50.3c8.2-4.3,13.8-12.9,13.8-22.8C70.5,13.2,59,1.7,44.7,1.7
				S19,13.2,19,27.5s5.8,18.8,14.3,23l-23.1,14l0,0c-3,2.4-5,6-5,10c0,6.5,5,11.8,11.5,12.3l0,0h46.6l0,0c0,0,0,0,0.1,0
				c1.2,0,2.2-1,2.2-2.2s-1-2.2-2.2-2.2c-1.2,0,0,0-0.1,0l0,0H16.9c-3.9-0.4-7.1-4-7.1-7.9s1.9-5.5,4.3-6.8l0,0l25.2-15.2
				c1.8,0.4,3.7,0.7,5.7,0.7c1.9,0,4.2-0.3,6.1-0.7L78,68.5l0,0l0,0c1,1,2.4,1,3.3,0c1-1,1-2.4,0-3.3L81.1,65.3z M44.7,49.1
				c-11.9,0-21.5-9.7-21.5-21.5S33,6.2,44.7,6.2s21.5,9.7,21.5,21.5S56.5,49.1,44.7,49.1z"/>
		</g>
	</g>
</g>
</svg>
