<svg id="Layer_1" data-name="Layer 1" xmlns="http://www.w3.org/2000/svg" width="100" height="100" viewBox="0 0 100 100"><defs><style>.cls-1{fill:#719485;}.cls-2{fill:#2e3e36;fill-rule:evenodd;}</style></defs><g id="Shape_21" data-name="Shape 21"><path class="cls-1" d="M48.11,47.73,31.92,38.17c-3.56-1.38-4.11,2.07-4.11,2.07V59.62c.66,3.6,4.11,2.07,4.11,2.07l15.94-9.31C51,49.89,48.11,47.73,48.11,47.73ZM30.89,58.59V41.53L45.54,49.8Z"/></g><g id="Shape_19" data-name="Shape 19"><path class="cls-2" d="M86.42,30.16,70,37.45V29.9A12.88,12.88,0,0,0,57.11,17H14.7A12.89,12.89,0,0,0,1.84,29.9V70.21A12.9,12.9,0,0,0,14.7,83.14H57.11A12.89,12.89,0,0,0,70,70.21V62.76L85.9,70C98,73.72,98,60.65,98,60.65V39.72C98,26.23,86.42,30.16,86.42,30.16ZM66.62,69.44A10.31,10.31,0,0,1,56.34,79.78H15.47A10.31,10.31,0,0,1,5.19,69.44V30.67A10.31,10.31,0,0,1,15.47,20.34H56.34A10.31,10.31,0,0,1,66.62,30.67ZM94.39,39.2V59.62c-.69,10.54-8.49,6.46-8.49,6.46L70,59.11V41.19l17-7.41C94.8,30.43,94.39,39.2,94.39,39.2Z"/></g></svg>